<svg width="382" height="394" fill="none" xmlns="http://www.w3.org/2000/svg">
  <g clip-path="url(#a)">
    <path d="M45.3 252.7 45 247V241l.2.2-13.9.2H17.6l.5-.4v11.6l-.5-.4h6.9l6.8.2 14 .2Zm0 0-13.8.3-6.9.1h-7.4v-12.5H31.4l13.9.2h.2v.3l-.1 5.9-.1 5.7ZM29.8 267.4v-5.8l-.2-5.8.2.2-13.8.2H2.2l.5-.4v11.6l-.5-.4H9l7 .2 13.8.2Zm0 0-13.7.3-7 .1H1.9v-12.5H16l13.8.2h.3v.3l-.1 5.9-.2 5.7ZM29.8 15.1V9.2l-.2-5.8.2.3-13.8.1L2.2 4l.5-.5v11.7l-.5-.4H9l7 .1 13.8.3Zm0 0-13.7.3h-7l-6.9.1h-.4V3H16l13.8.2h.3v.2l-.1 6-.2 5.7ZM379.2 15.1V9.2l-.2-5.8.2.3-13.8.1-13.8.1.5-.5v11.7l-.5-.4h6.8l7 .1 13.8.3Zm0 0-13.7.3h-7l-6.9.1h-.4V3H365.3l13.8.2h.3v.2l-.1 6-.2 5.7ZM363.8 29.8l-.1-5.9-.1-5.8.2.3-13.8.1-13.8.1.4-.5v11.7l-.4-.4h6.8l6.9.1 14 .3Zm0 0-13.7.3h-7l-7 .1h-.3V17.7H350l13.8.2h.3v.2l-.1 6-.2 5.7ZM293 166.2v-5.9l-.2-5.7.2.2-13.8.2h-13.8l.5-.4v11.6l-.5-.4h6.8l7 .2 13.8.2Zm0 0-13.7.3h-7l-6.9.1h-.4v-12.5H279.1l13.8.2h.3v.3l-.1 5.9-.2 5.7Z" fill="#A6A6A6"/>
    <path d="m277.6 181-.1-6-.1-5.7.2.2-13.8.2H250l.5-.4-.1 11.6-.4-.4h6.8l6.9.2 14 .2Zm0 0-13.7.2-7 .1h-7.3v-12.5H263.7l13.8.2h.3v.3l-.1 5.9-.2 5.7Z" fill="#E7E8E5"/>
    <path d="m262.3 166.2-.2-5.9v-5.7l.2.2-13.8.2h-13.9l.5-.4v11.6l-.5-.4h6.9l6.8.2 14 .2Zm0 0-13.7.3h-7l-7 .1h-.4v-12.5h14.3l13.8.2h.2v.3l-.1 5.9-.1 5.7ZM379.2 267.4v-5.8l-.2-5.8.2.2-13.8.2h-13.8l.5-.4v11.6l-.5-.4h6.8l7 .2 13.8.2Zm0 0-13.7.3-7 .1H351.3v-12.5H365.3l13.8.2h.3v.3l-.1 5.9-.2 5.7ZM144.4 49.8v-6l-.2-5.7.2.3-13.8.1h-13.8l.5-.4v11.7l-.5-.4h6.8l7 .1 13.8.3Zm0 0-13.7.2-7 .1H116.5V37.8H130.5l13.8.2h.3v.2l-.1 5.9-.2 5.8ZM342.1 120.5a8.5 8.5 0 1 1-8-14.9 8.5 8.5 0 0 1 8 15Zm8.8 6.5 5.4-8.7-2.7-1.7a2.4 2.4 0 0 1-1.1-2.3v-1.5c0-1 .5-1.8 1.3-2.3l2.8-1.5-4.9-9-2.8 1.5c-.8.4-1.8.3-2.5-.2l-1.4-.8a2.5 2.5 0 0 1-1.3-2.2l.1-3.2-10.3-.3v3.1c-.1 1-.7 1.8-1.5 2.2a16 16 0 0 0-1.3.7c-.8.5-1.8.5-2.6 0l-2.7-1.7-5.5 8.8 2.7 1.7c.8.5 1.3 1.3 1.2 2.3v1.5c0 1-.5 1.8-1.4 2.2l-2.7 1.5 4.8 9.1 2.8-1.5c.8-.4 1.8-.3 2.6.2l1.3.8c.8.4 1.3 1.3 1.3 2.2l-.1 3.2 10.3.3.1-3.2c0-.9.6-1.7 1.4-2a15.6 15.6 0 0 0 1.4-.8c.8-.5 1.8-.5 2.6 0l2.7 1.6ZM44.7 219.8a8.5 8.5 0 1 1-8-15 8.5 8.5 0 0 1 8 15Zm8.8 6.5 5.4-8.8-2.7-1.6a2.4 2.4 0 0 1-1.1-2.3V212c0-.9.5-1.8 1.3-2.2l2.8-1.5-4.9-9-2.8 1.4c-.8.5-1.8.4-2.5-.1a14 14 0 0 0-1.3-.9 2.5 2.5 0 0 1-1.3-2.2v-3.1l-10.2-.4-.1 3.2c0 1-.6 1.7-1.5 2.1a13.3 13.3 0 0 0-1.3.8c-.8.4-1.8.5-2.6 0l-2.7-1.7-5.4 8.8 2.7 1.6c.8.5 1.2 1.4 1.1 2.3v1.6c0 .9-.5 1.8-1.3 2.2l-2.8 1.5 4.9 9L30 224c.8-.4 1.8-.4 2.5.2l1.3.8c.8.4 1.3 1.3 1.3 2.2v3.1l10.2.4.1-3.2c0-1 .6-1.7 1.5-2.1a14.4 14.4 0 0 0 1.3-.7c.8-.5 1.8-.6 2.6 0l2.7 1.6Z" fill="#A6A6A6"/>
    <path d="M152.3 61.7a6 6 0 1 1-11.9 0 6 6 0 0 1 11.9 0Zm6.9-3.2-3.6-6.2-2 1c-.5.4-1.2.4-1.8 0a10 10 0 0 0-.9-.5c-.6-.3-1-1-1-1.6V49h-7.2v2.2c0 .7-.4 1.3-1 1.6l-.9.5c-.5.4-1.2.4-1.8 0l-1.9-1-3.6 6.2 2 1.1c.5.3.8 1 .8 1.6a9.4 9.4 0 0 0 0 1c0 .7-.3 1.3-.9 1.7l-2 1 3.7 6.3 2-1c.5-.4 1.2-.4 1.7 0l1 .5c.5.3 1 .9 1 1.6v2.2h7.2v-2.2c0-.7.3-1.3.9-1.6l1-.5c.5-.4 1.2-.4 1.7 0l2 1 3.6-6.2-2-1.1c-.5-.4-.8-1-.8-1.6a9.5 9.5 0 0 0 0-1c0-.7.3-1.4.9-1.7l1.9-1Z" fill="#A6A6A6"/>
    <path d="M41.7 240.5c-12 11.8-14 30-11.5 46 0 .4.6.3.6 0v-10.9l.1-.5c3.2-2.3 6-4.9 7.8-8.4 2-4 2.9-8.4 4.4-12.6.1-.4-.3-.2-.6 0-7.3 5.4-9.6 11.2-11.8 19 .1-4 .5-8.1 1.3-12.1a41.3 41.3 0 0 1 10-20.2c.3-.2 0-.6-.3-.3Z" fill="#17282F"/>
    <path d="M44 241.8c2 .1 3.4 3.4 5 4.4.9.5 1.7.5 2.3-.4 1.6-2.2-.6-5-2.7-6.5 1.5.6 2.8 1.7 4.3 2 1 .1 1.8-.2 2-1.2.7-3-3.1-4.4-5.8-4.5 1.3-.9 5-3.3 3-4.4-2-1.2-6.2 2.2-7.6 3.3-2 1.7-4.5 4.2-4.6 6.8-.1 3 2.5 1.2 4.1.5Z" fill="#FABB1E"/>
    <path d="M50 246.5c-.3 0-.6 0-1-.3-1.2-.7-2.2-2.7-3.5-3.8-.2 0-.3-.2-.5-.3-.3-.1-.6-.3-1-.3-1 .4-2.2 1.2-3 1.2a1 1 0 0 1-.7-.2 1 1 0 0 1-.3-.5 2.6 2.6 0 0 1-.1-1c0-2.6 2.5-5 4.6-6.8 1.2-1 4.5-3.6 6.6-3.6.4 0 .7 0 1 .3.4.2.6.5.6.8 0 1.3-2.5 3-3.6 3.6 2.4 0 5.9 1.2 5.9 3.8l-.1.7c-.2.8-.8 1.2-1.5 1.2h-.5c-1.5-.3-2.8-1.4-4.3-2 1.6 1.2 3.3 3 3.3 4.8 0 .6-.2 1.2-.6 1.7-.3.5-.8.7-1.2.7Z" fill="#F7A9A0"/>
    <path d="M43.4 242.3c2.7-1.2 7.8.6 8.2-.4.9-2-3.2-3.5-5.4-3.8 2-.5 6-1.4 5.8-3.3-.1-2.4-6-.4-8.9 1.9-3.7 2.8-3.7 5.6-3 6.1.8.8 2.9-.3 3.3-.5Z" fill="#FFD8D0"/>
    <path d="M14.2 239.3c12.6 11.3 15.3 29.5 13.3 45.6 0 .4-.6.3-.6 0l-.3-10.9-.2-.5a24.3 24.3 0 0 1-8.2-8.1c-2.1-3.9-3.1-8.3-4.8-12.4-.2-.4.3-.3.6 0 7.5 5 10 10.8 12.5 18.5-.3-4-.7-8-1.8-12A41.3 41.3 0 0 0 14 239.5c-.2-.2.1-.5.3-.3Z" fill="#17282F"/>
    <path d="M12 240.7c-2 .2-3.2 3.6-4.8 4.6-.8.5-1.7.5-2.3-.3-1.7-2.2.4-5 2.4-6.6-1.5.6-2.6 1.8-4.2 2.1-1 .2-1.8 0-2-1-.8-3 3-4.6 5.6-4.8-1.3-.8-5-3-3.2-4.3 2-1.3 6.3 2 7.8 3 2.1 1.7 4.6 4 4.8 6.7.3 3-2.5 1.2-4 .6Z" fill="#FABB1E"/>
    <path d="M6 245.7c-.4 0-.8-.2-1.1-.7-.5-.5-.6-1.1-.6-1.8 0-1.7 1.5-3.6 3-4.8-1.5.6-2.6 1.8-4.2 2.1h-.6c-.7 0-1.2-.3-1.4-1l-.1-.9c0-2.5 3.3-3.7 5.7-3.9-1-.6-3.7-2.2-3.7-3.5 0-.3.1-.6.5-.8a2 2 0 0 1 1-.3c2.2 0 5.6 2.5 6.8 3.4 2.1 1.6 4.6 4 4.8 6.6v.3l-.1.9-.2.2a1 1 0 0 1-.7.3c-.9 0-2.2-.7-3-1-2.2.1-3.3 3.5-5 4.5a2 2 0 0 1-1 .4Z" fill="#F7A9A0"/>
    <path d="M12.6 241.2c-2.7-1-7.7.9-8.2-.1-1-2 3.1-3.6 5.3-4-2-.4-6-1.1-6-3.1.1-2.4 6-.6 9 1.6 3.8 2.7 4 5.4 3.3 6-.8.8-3-.2-3.4-.4Z" fill="#FFD8D0"/>
    <path d="M27 269.2c1 6 2.1 12.2 4 18 .1.5.9.4.8-.2-.8-5.5-2.3-11-3.1-16.5a82.9 82.9 0 0 1-1-16.9c.5-9.3 3-19.2 9.1-26.5.2-.2-.1-.4-.2-.3C24.4 241 26.3 258.4 26.3 260c-1.7-5.9-3.5-12.6-10-18.6-.3-.3-.5-.1-.5.3 1.2 10.9 4.2 16.6 10.6 22.4l.6 5.1Z" fill="#17282F"/>
    <path d="M37 228.7c2.1-1 5.2 1.8 7.3 2 1.2.1 2-.3 2.2-1.5.6-3.1-3.1-4.9-6-5.4h2c1.2 0 2.3.2 3.4-.1 1.1-.4 1.7-1.1 1.5-2.2-.8-3.5-5.5-3-8.3-1.8 1-1.5 3.5-5.9.9-6.1-2.7-.3-5.4 5.5-6.2 7.3-1.3 2.8-2.6 6.6-1.4 9.4 1.4 3.2 3.2-.1 4.6-1.6Z" fill="#FABB1E"/>
    <path d="M33.8 231.6h-.1a1 1 0 0 1-.5-.2c-.3-.2-.6-.6-.8-1.1-.4-.8-.5-1.7-.5-2.6 0-2.3 1-4.8 1.9-6.8.8-1.8 3.4-7.3 6-7.3h.2c.8 0 1.1.6 1.1 1.2 0 1.5-1.4 3.9-2 5 1.2-.6 2.8-1 4.2-1 2 0 3.6.7 4 2.7l.1.5c0 .8-.5 1.4-1.5 1.7l-1.8.2h-1.5l-1.5-.2h-.6c2.7.6 6 2.2 6 4.9v.6c-.1.8-.5 1.3-1.2 1.5a2.5 2.5 0 0 1-1 0h-.6c-1.8-.6-4-2.2-5.7-2.2-.4 0-.7 0-1 .2l-1.4 1.7c-.6.6-1.2 1.2-1.8 1.2Z" fill="#F7A9A0"/>
    <path d="M36.6 229.6c2.1-2.6 8.3-3.4 8.2-4.6 0-2.6-5-2-7.4-1.2 1.8-1.6 5.4-4.4 4.3-6.4-1.4-2.4-6.4 2.6-8.3 6.5-2.4 4.8-1 7.6 0 7.9 1.2.3 2.8-1.8 3.2-2.2Z" fill="#FFD8D0"/>
    <path d="m19 272.5-5.4 41h32.7l-6.7-41H19Z" fill="#24CCA7"/>
    <path d="m-.3 313.7 47.8-.3h47.7l95.5-.2 95.5.2H334l47.7.3-47.7.2h-47.8l-95.5.2-95.5-.1-47.7-.1-47.8-.2Z" fill="#17282F"/>
    <path d="M328.5 374.5c0 10.7-61.7 19.4-137.8 19.4-76 0-137.8-8.7-137.8-19.4 0-10.8 61.7-19.5 137.8-19.5 76.1 0 137.8 8.7 137.8 19.5Z" fill="#000" fill-opacity=".1"/>
    <path d="m74.2 128.8 22.4-5.7L89.2 94l-15 34.8Zm31 41.3-5.7-22.5L54.2 159l-6-23.5L84.5 53l18-4.5 17.4 68.6 14.5-3.7 6 23.7L126 141l5.8 22.5-26.4 6.7ZM207.7 94.9a35 35 0 0 0-4.7-19.3c-3.2-5-7.3-7.4-12.3-7.4-5.2 0-9.4 2.5-12.5 7.4-3.1 5-4.7 11.3-4.7 19.3a35 35 0 0 0 4.7 19.2c3.1 4.8 7.3 7.3 12.5 7.3 5 0 9-2.5 12.3-7.3a34.6 34.6 0 0 0 4.7-19.2Zm27.4 0c0 7.4-1.1 14.3-3.4 20.6a51.2 51.2 0 0 1-9.3 16.3 40.7 40.7 0 0 1-31.6 14.5 41.2 41.2 0 0 1-31.9-14.5c-4-4.6-7-10-9.3-16.3a61.8 61.8 0 0 1-3.3-20.6c0-7.5 1.1-14.4 3.3-20.7A50 50 0 0 1 159 58 43 43 0 0 1 173 47.1c5.5-2.6 11.4-3.9 17.7-3.9a40 40 0 0 1 17.6 4c5.4 2.5 10 6.1 14 10.7s7.1 10 9.4 16.3a60.4 60.4 0 0 1 3.4 20.7ZM272 115.5l22.8 3.7 4.8-29.7-27.7 26Zm12 50.3 3.7-23-46.2-7.4 3.9-24 66-61.2 18.4 3-11.4 69.8 14.8 2.4-3.9 24.2-14.8-2.4-3.7 23-26.9-4.4ZM144.8 13.4c0 1.2.2 2.3.6 3.4.3 1 .8 2 1.5 2.8a7 7 0 0 0 5.7 2.7 7 7 0 0 0 5.7-2.8 9 9 0 0 0 1.5-2.8 10.5 10.5 0 0 0 0-6.6c-.4-1-1-2-1.6-2.8a7 7 0 0 0-5.7-2.7 7 7 0 0 0-5.7 2.8 9 9 0 0 0-1.5 2.8c-.3 1-.5 2.1-.5 3.2Zm7.7 13.5a12 12 0 0 1-9.3-4.2 13.7 13.7 0 0 1-2.6-14.3 13 13 0 0 1 6.9-7.3 12.3 12.3 0 0 1 10.4 0 13.1 13.1 0 0 1 6.6 7.5 13.6 13.6 0 0 1-6.8 17.2c-1.6.7-3.3 1-5.2 1ZM172.9 17c0 .8.1 1.6.4 2.3.2.7.6 1.3 1 1.9a4.8 4.8 0 0 0 7.3 0c.5-.6.9-1.2 1.1-1.9a7 7 0 0 0 .4-2.4c0-.8-.1-1.6-.4-2.3a4.8 4.8 0 0 0-6.7-3 5 5 0 0 0-1.7 1.1 6.9 6.9 0 0 0-1.5 4.2Zm5 10c-1.5 0-3-.2-4.2-.8a9.6 9.6 0 0 1-5.3-5.4 10.5 10.5 0 0 1 0-7.7 9.8 9.8 0 0 1 9.6-6.3 9.7 9.7 0 0 1 9.5 6.3 10.6 10.6 0 0 1-2 11 10.8 10.8 0 0 1-7.5 3ZM201.6 22.8c.8 0 1.5-.2 2.1-.5a5 5 0 0 0 1.6-1.3c.5-.5.8-1.2 1-1.9a6.8 6.8 0 0 0 0-4.5c-.2-.7-.6-1.3-1.1-1.9a5.3 5.3 0 0 0-3.9-1.6c-.4 0-1 0-1.4.2l-1.4.7-1.1 1c-.4.4-.6.9-.8 1.3V19c.4 1.1 1.1 2 2 2.8 1 .7 2 1.1 3 1.1Zm1.7 4.3c-1.5 0-2.9-.4-4-1-1.2-.8-2-1.7-2.7-2.9v11.4h-5V7.1h4.4v3.4a7.8 7.8 0 0 1 6.8-3.7c1.2 0 2.4.3 3.6.8a9 9 0 0 1 2.9 2.2 11 11 0 0 1 2.6 7.1c0 1.4-.3 2.7-.7 4-.4 1.2-1 2.3-1.8 3.2a7.6 7.6 0 0 1-6.1 3ZM222.7 27c-1.7 0-3.3-.2-4.9-.7-1.5-.6-2.9-1.3-4-2.3l1.9-3.1a16 16 0 0 0 3.5 2c1 .4 2.2.6 3.3.6 1 0 1.8-.2 2.4-.6.6-.4.8-.9.8-1.6 0-.7-.3-1.2-1-1.5-.6-.3-1.7-.7-3.2-1.1l-3.3-1-2.2-1.1c-.5-.5-1-1-1.2-1.5-.2-.5-.3-1.1-.3-1.9a5.9 5.9 0 0 1 2.2-4.7c.7-.6 1.5-1 2.4-1.3a13.1 13.1 0 0 1 7.2.2 10 10 0 0 1 3.5 2l-2 3c-1-.7-2-1.2-2.9-1.6a8 8 0 0 0-2.8-.5 4 4 0 0 0-2.1.5c-.6.4-.9 1-.9 1.7l.2.9.7.6 1.2.5 1.8.5 3.4 1 2.4 1.2c.6.5 1 1 1.3 1.6.3.5.5 1.2.5 2 0 2-.7 3.5-2.2 4.6a9.2 9.2 0 0 1-5.7 1.7ZM234.8 26.7V21h5v5.7h-5Zm0-10V0h5v16.8h-5Z" fill="#17282F"/>
    <path d="M209.8 252.4h-32.9v-2.7h32.9v2.7ZM209.8 255.9h-32.9v-2.7h32.9v2.7ZM209.8 259.4h-32.9v-2.7h32.9v2.7ZM209.8 262.9h-32.9v-2.7h32.9v2.7ZM209.8 266.4h-32.9v-2.7h32.9v2.7ZM224 336.1h-62.4v-2.6H224v2.6ZM224 339.6h-62.4V337H224v2.6ZM224 343.1h-62.4v-2.6H224v2.6ZM224 346.6h-62.4V344H224v2.6ZM161.6 350.1H224v-2.6h-62.4v2.6Z" fill="#273E47"/>
    <path d="M134.2 227.5c0-.4-13.7-5-13.7-5l.8-47 18.2-3.8-5.3 55.8Z" fill="#FABB1E"/>
    <path d="M132.8 226.9c-3.4-1.4-12.3-4.3-12.3-4.3l.8-47 16.2-3.5a2181 2181 0 0 0-4.7 54.8Z" fill="#D59814"/>
    <path d="M259.6 246c0-.4 14.5 0 14.5 0l15.4-44.4-15.7-9.9-14.2 54.2Z" fill="#FABB1E"/>
    <path d="m274.1 246-11.3-.2h-2.2L276 193l13.6 8.6-15.4 44.4Z" fill="#D59814"/>
    <path d="M131.5 244.8s5.1-76 9.6-101c0 0 91.9 7 141.5 25.9 0 0-25.6 88.7-27 93.1 0 0-64.6-12.7-124-18Z" fill="#FABB1E"/>
    <path d="m265.5 223.2-2.3-.5 2.3.5Zm-55.8-12.8-5.8-1.3-.4-.1.1-.3 5-27.4 5-27.3-4.6 27.4-4.7 27 5.6 1.4-.2.6ZM208.4 161c-.4 0-.8-.2-1.2-.5-.3-.3-.6-.8-.6-1.3s.3-1 .6-1.4a1.8 1.8 0 0 1 1.4-.4 1.8 1.8 0 0 1 0 3.6h-.2Zm.3-3.3h-.1a1.5 1.5 0 0 0 .1 3c.4 0 .7-.2 1-.4.3-.3.5-.7.5-1.1 0-.4-.2-.9-.5-1.1-.3-.2-.6-.4-1-.4ZM206.8 172.3c-.4 0-.8-.2-1.2-.5-.4-.3-.6-.8-.6-1.3s.2-1 .6-1.4a1.8 1.8 0 0 1 1.4-.4 1.8 1.8 0 0 1-.2 3.6Zm.3-3.3h-.1a1.5 1.5 0 0 0 .1 3c.4 0 .7-.2 1-.4.3-.3.5-.7.5-1.1 0-.4-.2-.8-.5-1.1-.3-.2-.6-.4-1-.4ZM204.8 184.2c-.4 0-.8-.1-1.2-.4-.3-.3-.6-.9-.6-1.4 0-.5.3-1 .6-1.3a1.8 1.8 0 0 1 1.4-.5 1.8 1.8 0 0 1-.2 3.6Zm.3-3.2a1.4 1.4 0 0 0-1.4 1.4 1.4 1.4 0 0 0 1.4 1.5c.4 0 .7-.1 1-.4.3-.2.5-.6.5-1 0-.5-.2-.9-.5-1.2-.3-.2-.6-.3-1-.3ZM202.8 196.2c-.4 0-.8-.2-1.2-.5-.3-.3-.6-.8-.6-1.3s.3-1 .6-1.4a1.8 1.8 0 0 1 1.4-.4 1.8 1.8 0 0 1-.2 3.6Zm.4-3.3h-.2a1.5 1.5 0 0 0 .2 3c.3 0 .6-.2.9-.4.3-.3.5-.7.5-1.1 0-.4-.2-.9-.5-1.1-.3-.3-.6-.4-1-.4ZM209.6 215.2c-.4 0-.8-.1-1.2-.4-.4-.4-.6-.9-.6-1.4 0-.5.2-1 .6-1.3a1.8 1.8 0 0 1 1.4-.5c.3 0 .7.2 1 .4l-.1.2a1.5 1.5 0 0 0-1-.2 1.4 1.4 0 1 0 .5 2.8v.3a1.6 1.6 0 0 1-.6.1ZM200.8 208.1c-.4 0-.8-.1-1.1-.4-.4-.4-.6-.9-.7-1.4 0-.5.3-1 .7-1.3a1.8 1.8 0 0 1 1.3-.5 1.8 1.8 0 0 1-.2 3.6Zm.4-3.2h-.2a1.5 1.5 0 0 0 .2 2.9c.3 0 .6-.1 1-.4.2-.2.4-.7.4-1 0-.5-.2-1-.5-1.2-.3-.2-.6-.3-1-.3Z" fill="#F4AC12"/>
    <path d="m166.2 232.8-4.2-.3a26 26 0 1 1 4.2.3Z" fill="#D59814"/>
    <path d="M186.8 210a21 21 0 1 1-41.3-6.7 21 21 0 0 1 41.3 6.8Z" fill="#17282F"/>
    <path d="m164.1 204-4.9-.8.8-5 4.9.9-.8 4.8Z" fill="#24CCA7"/>
    <path d="m160 198.3-4.9-.8.8-5 4.9.9-.8 4.9ZM179.6 201.4l-5-.8.9-4.8 4.9.8-.8 4.8ZM156.9 217.7l-5-.8.9-4.9 4.8.8-.7 5ZM176.4 220.9l-4.9-.8.8-5 5 .9-.9 4.9Z" fill="#24CCA7"/>
    <path d="m162.5 213.6-4.9-.8.8-4.9 5 .8-.9 5Z" fill="#24CCA7"/>
    <path d="m168.2 209.6-4.9-.8.8-5 5 .9-.9 4.9Z" fill="#24CCA7"/>
    <path d="m173.9 205.5-4.9-.8.8-4.8 4.9.7-.8 5ZM172.3 215.2l-4.9-.8.8-4.9 5 .8-.9 4.9Z" fill="#24CCA7"/>
    <path d="M261.6 223.7a26.1 26.1 0 1 1-50.8-12.1 26.1 26.1 0 0 1 50.8 12Z" fill="#FABB1E"/>
    <path d="M236.2 243.7a26.2 26.2 0 0 1-25.9-29.3l5 1a21 21 0 0 0 40.8 8.7l5 1 .2-.2a26.1 26.1 0 0 1-25 18.8ZM261.3 224.9a26.8 26.8 0 0 0 .5-2 25.9 25.9 0 0 1-.5 2ZM210.7 212a12.5 12.5 0 0 1 .3-1.2 22.7 22.7 0 0 0-.3 1.2Z" fill="#D59814"/>
    <path d="m261.2 225.2-5.1-1a20.7 20.7 0 0 0 .6-2.5l5 1.2a28.9 28.9 0 0 1-.4 2l-.1.3Zm-45.8-9.8-5-1a28.6 28.6 0 0 1 .6-3.6l5 1.2a22.7 22.7 0 0 0-.6 3.4Z" fill="#A27619"/>
    <path d="M256.6 222.5a21 21 0 1 1-40.8-9.7 21 21 0 0 1 40.8 9.7Z" fill="#17282F"/>
    <path d="m235.8 230.2-4.9-1.1 5.7-24 4.9 1.1-5.7 24Z" fill="#24CCA7"/>
    <path d="m263.1 223.2-53.4-12.7a27.5 27.5 0 0 1 53.4 12.7Z" fill="#FABB1E"/>
    <path d="m263.1 223.2-24.3-5.8-4.8-1.1-24.3-5.8a27.5 27.5 0 0 1 53.5 12.2l-.1.5Z" fill="#D59814"/>
    <path d="M205.4 235.3c-.4-2-1-4-1.9-5.7a5.4 5.4 0 0 0-4.2-2.8 6.4 6.4 0 0 0-5 1.5c-1.5 1.2-2.7 3-3.5 4.8.1-2 .9-4.2 2.4-5.8a7 7 0 0 1 5.4-2.3h.9c1.1.1 2.3.5 3.2 1.3 1 .7 1.7 1.7 2.1 2.7.9 2 1 4.3.6 6.3Z" fill="#F4AC12"/>
    <path d="m138.7 180 .8-8.3 1-8.4 1-8.3 1-8.2.2-.8h.7a460.5 460.5 0 0 1 27 2.6c3 .4 6 .8 9 1.4l-18-1.2-18-1.1.8-.7-1.2 8.3-1.3 8.2-1.5 8.3-1.5 8.2ZM143 201c.6-3.3 2.2-6.5 4.2-9.3l1.7-2 1.8-1.8 2-1.6 2.3-1.4 2.3-1.2 2.5-.8 2.6-.5c.8-.2 1.7-.2 2.6-.3 3.5 0 6.9.7 10 2-3.3-.7-6.6-1-10-.7-3.2.3-6.4 1.3-9.2 2.9A30.7 30.7 0 0 0 143 201ZM215 208c1-3.1 3-6 5.4-8.6l2-1.7 2-1.6 2.3-1.3 2.4-1c.8-.4 1.6-.6 2.5-.9l2.6-.5 2.6-.2 2.6.2c3.4.4 6.7 1.6 9.7 3.3-3.3-1.1-6.5-1.9-9.8-2-3.3-.2-6.6.3-9.6 1.5a30.8 30.8 0 0 0-14.6 12.9Z" fill="#fff"/>
    <path d="M134.5 291.6c-6.7 0-21.4-1.5-30.8-13.6-12-15.5-7.7-45.1-7.5-46.4l5.3.8c0 .3-4.2 28.7 6.4 42.4 10.4 13.3 29.3 11.4 29.5 11.4l.6 5.2c-.2 0-1.5.2-3.5.2Z" fill="#FABB1E"/>
    <path d="M134 291.6c-6.8 0-21-1.7-30.3-13.6-6.9-8.9-8.4-22.4-8.4-32.6 0-7.5.8-13.3 1-13.8l5.2.8c0 .1-.9 5.7-.9 13 0 9.4 1.3 21.7 7.3 29.4 7.4 9.5 19.2 11.3 25.4 11.5l.7 5.3Z" fill="#FCD361"/>
    <path d="M103 236c-1 0-2 0-3-.2a17.7 17.7 0 0 1-14.4-11 27.6 27.6 0 0 1-1.2-15l11.2 1.9c-.6 3.5-.4 6.7.5 8.9.6 1.5 1.9 3.3 5.8 4 1.8.3 3.7.1 5.7-3a21 21 0 0 0 2.9-7.5l11.2 1.8c-.3 1.6-1.4 7.2-4.6 12-3.5 5.3-8.4 8-14.1 8ZM145.5 306.7c0-.2-9.5-1.7-9.5-1.7l-4.6-30.9 11.5-4.5 2.6 37.1Z" fill="#FABB1E"/>
    <path d="M144.3 306.4 136 305l-4.6-30.9 10.3-4c.3 11.1 1.4 24.4 2.6 36.3Z" fill="#D59814"/>
    <path d="M239 306.8c0-.3 9.6-1.6 9.6-1.6l5.3-30.7-11.4-4.8-3.4 37Z" fill="#FABB1E"/>
    <path d="m250.7 293 2.7-18.7.5.2-3.2 18.5Zm-8-17 .6-6 9.5 4-2.7-.4-7.4 2.5Z" fill="#D59814"/>
    <path d="M141.6 262.7s76.5-3.3 102.4 1c0 0-7.6 74-8 75.4 0 0-76.2-.2-88 0 0 0-6.5-49.1-6.4-76.4Z" fill="#FABB1E"/>
    <path d="M216.3 321.5h-45.7l-3.2-38.6c5-.2 16.4-.5 27.8-.5 10 0 20 .2 25.5 1.1l-4.4 38Z" fill="#263238"/>
    <path d="M168.3 321.5s-2.9-25.5-3.5-38.5l2.6-.1h-2.6a840 840 0 0 0 3.5 38.6h2.2-2.2Z" fill="#D59814"/>
    <path d="M168.3 321.5s-2.9-25.5-3.5-38.5l2.6-.1 3.1 38.6h-2.2Z" fill="#A27619"/>
    <path d="M185.2 297.6a3.9 3.9 0 1 1-7.4-2.4 3.9 3.9 0 0 1 7.4 2.4Zm-2.3-5.4a4.4 4.4 0 1 0-2.7 8.5 4.4 4.4 0 0 0 2.7-8.5Zm2.3 5.4a3.9 3.9 0 1 1-7.4-2.4 3.9 3.9 0 0 1 7.4 2.4Zm-2.3-5.4a4.4 4.4 0 1 0-2.7 8.5 4.4 4.4 0 0 0 2.7-8.5Zm2.3 5.4a3.9 3.9 0 1 1-7.4-2.4 3.9 3.9 0 0 1 7.4 2.4Zm.6.1a4.4 4.4 0 1 0-8.5-2.6 4.4 4.4 0 0 0 8.5 2.6Zm.6.3a5.1 5.1 0 0 1-9.8-3.1 5.1 5.1 0 0 1 9.8 3Zm-2-10.5a9.4 9.4 0 1 0-5.7 17.9 9.4 9.4 0 0 0 5.6-18Zm.8 10a3.9 3.9 0 1 1-7.4-2.3 3.9 3.9 0 0 1 7.4 2.4Zm-2.3-5.3a4.4 4.4 0 1 0-2.7 8.5 4.4 4.4 0 0 0 2.7-8.5Zm2.3 5.4a3.9 3.9 0 1 1-7.4-2.4 3.9 3.9 0 0 1 7.4 2.4Zm-2.3-5.4a4.4 4.4 0 1 0-2.7 8.5 4.4 4.4 0 0 0 2.7-8.5Zm2.3 5.4a3.9 3.9 0 1 1-7.4-2.4 3.9 3.9 0 0 1 7.4 2.4Zm-2.3-5.4a4.4 4.4 0 1 0-2.7 8.5 4.4 4.4 0 0 0 2.7-8.5Z" fill="#A6A6A6"/>
    <path d="m180.5 305.5-3.4-1-.6 2.4 3 1 1-2.4ZM174.4 302.3l-1.7-3.2-2.2 1.4 1.5 2.8 2.4-1ZM172.3 295.7l1-3.5-2.4-.5-1 3 2.4 1ZM175.5 289.5l3.2-1.7-1.4-2.1-2.8 1.4 1 2.4ZM182.1 287.4l3.5 1 .5-2.4-3-1-1 2.4ZM188.3 290.6l1.7 3.2 2.1-1.3-1.4-2.9-2.4 1ZM190.4 297.3l-1 3.4 2.4.6 1-3.1-2.4-1ZM187.2 303.4l-3.2 1.7 1.3 2.1 2.9-1.4-1-2.4Z" fill="#A6A6A6"/>
    <path d="M198.5 309.2a2.6 2.6 0 1 1-4.4-3 2.6 2.6 0 0 1 4.4 3Zm-.5-4a3 3 0 1 0-3.3 5 3 3 0 0 0 3.3-5Zm.5 4a2.6 2.6 0 1 1-4.4-3 2.6 2.6 0 0 1 4.4 3Zm-.5-4a3 3 0 1 0-3.3 5 3 3 0 0 0 3.3-5Zm.5 4a2.6 2.6 0 1 1-4.4-3 2.6 2.6 0 0 1 4.4 3Zm.3.2a3 3 0 1 0-5-3.3 3 3 0 0 0 5 3.3Zm.4.2a3.5 3.5 0 0 1-5.8-3.7c1-1.6 3.2-2.1 4.8-1 1.6 1 2 3.1 1 4.7Zm.6-7.1a6.3 6.3 0 1 0-7 10.5 6.3 6.3 0 0 0 7-10.5Zm-1.3 6.7a2.6 2.6 0 1 1-4.4-3 2.6 2.6 0 0 1 4.4 3Zm-.5-4a3 3 0 1 0-3.3 5 3 3 0 0 0 3.3-5Zm.5 4a2.6 2.6 0 1 1-4.4-3 2.6 2.6 0 0 1 4.4 3Zm-.5-4a3 3 0 1 0-3.3 5 3 3 0 0 0 3.3-5Zm.5 4a2.6 2.6 0 1 1-4.4-3 2.6 2.6 0 0 1 4.4 3Zm-.5-4a3 3 0 1 0-3.3 5 3 3 0 0 0 3.3-5Z" fill="#D4D6D3"/>
    <path d="m194 313.5-2-1.4-.8 1.5 1.8 1.2 1-1.3ZM190.6 310.3l-.5-2.4-1.6.5.4 2 1.7-.1ZM190.5 305.6l1.3-2-1.5-.9-1.2 1.8 1.4 1ZM193.7 302.2l2.4-.5-.5-1.7-2.1.5.2 1.7ZM198.4 302l2 1.3.8-1.5-1.8-1.2-1 1.4ZM201.8 305.2l.5 2.4 1.6-.5-.4-2.1-1.7.2ZM202 309.9l-1.4 2 1.5.8 1.2-1.8-1.4-1ZM198.7 313.3l-2.3.5.4 1.6 2.2-.4-.3-1.7Z" fill="#D4D6D3"/>
    <path d="m242.1 330.5 3 .6 8.4-57-3.4-.5-8 57Z" fill="#FABB1E"/>
    <path d="m216.3 321.5 4.4-38 29.4-10-8 57-25.8-9Z" fill="#FABB1E"/>
    <path d="m242.1 330.5-5-1.7-20.8-7.3 4.4-38 29.4-10c0 .3-7.8 56.4-8 57Z" fill="#FCD361"/>
    <path d="M145.1 285a107.2 107.2 0 0 1-1.1-19v-.4h.4l17.5-1c5.9-.3 11.7-.6 17.6-.7l-17.5 1.4-17.5 1.1.4-.4v14.3l.2 4.7ZM224.8 284a92.1 92.1 0 0 1 11.2-4.5 104 104 0 0 1 11.7-3.2h.5l-.1.4-1.5 7.4.8-7.5.4.4a113.6 113.6 0 0 0-11.5 3.3l-11.5 3.8Z" fill="#fff"/>
    <path d="m160.4 339-.5-9.5-.4-9.5-.7-19-.6-19.1-.2-9.5-.1-6.8.4 6.8.4 9.5.8 19 .5 19 .3 9.6.1 9.5Zm-2.6-74.2v-2l.1 2Z" fill="#F4AC12"/>
    <path d="M157.9 265.6v-.8.8Z" fill="#E0E1DE"/>
    <path d="M153.3 270.7c-.3 0-.6 0-.8-.2-.5-.2-.8-.7-1-1.2 0-.5.1-1 .4-1.4a1.8 1.8 0 0 1 1.4-.7c1 0 1.7.6 1.8 1.4-.1-.4-.4-.8-.7-1a1.5 1.5 0 0 0-1.2 0 1.5 1.5 0 0 0 .6 2.7c.4 0 .8-.2 1-.5.3-.3.4-.8.3-1.2a1.8 1.8 0 0 1-1.8 2.1ZM154 282.1c-.3 0-.6 0-.9-.2-.4-.2-.8-.7-.9-1.2 0-.5 0-1 .4-1.4a1.8 1.8 0 0 1 1.4-.7c.9 0 1.6.6 1.7 1.4 0-.4-.3-.8-.7-1a1.5 1.5 0 0 0-1.1 0 1.4 1.4 0 1 0 1.6 2.2c.2-.3.3-.8.2-1.2a1.8 1.8 0 0 1-1.7 2.1ZM154.4 294.2c-.3 0-.6 0-.9-.2-.4-.2-.7-.7-.8-1.2-.1-.5 0-1 .3-1.4a1.8 1.8 0 0 1 1.4-.7c.9 0 1.6.6 1.8 1.4-.1-.4-.4-.8-.8-1a1.5 1.5 0 0 0-1.1 0 1.4 1.4 0 1 0 1.6 2.2c.2-.3.3-.8.3-1.2a1.8 1.8 0 0 1-1.8 2.1ZM154.8 306.3c-.3 0-.6 0-.9-.2-.4-.2-.7-.7-.8-1.2-.1-.5 0-1 .3-1.4a1.8 1.8 0 0 1 1.4-.7c1 0 1.6.6 1.8 1.4-.1-.4-.4-.8-.7-1a1.5 1.5 0 0 0-1.2 0 1.4 1.4 0 0 0 .5 2.7c.5 0 .8-.2 1.1-.5.3-.3.4-.8.3-1.2a1.8 1.8 0 0 1-1.8 2.1ZM155.3 318.4c-.4 0-.7 0-1-.2-.4-.2-.7-.7-.8-1.2-.1-.5 0-1 .3-1.4a1.8 1.8 0 0 1 1.5-.7c.8 0 1.6.6 1.7 1.4 0-.4-.4-.8-.7-1a1.5 1.5 0 0 0-1.2 0 1.4 1.4 0 0 0 .6 2.7c.4 0 .8-.2 1-.5.3-.3.4-.8.3-1.2a1.8 1.8 0 0 1-1.8 2.1ZM155.7 330.5c-.3 0-.7 0-1-.2-.4-.2-.7-.7-.8-1.2 0-.5 0-1 .3-1.4a1.8 1.8 0 0 1 1.5-.7c.8 0 1.6.6 1.7 1.4 0-.4-.3-.8-.7-1a1.5 1.5 0 0 0-1.2 0 1.4 1.4 0 0 0 .6 2.7c.4 0 .8-.2 1-.5.3-.3.4-.8.3-1.2a1.8 1.8 0 0 1-1.7 2.1Z" fill="#F4AC12"/>
    <path d="m119.4 365-1.6-5 43.4-13.1 1.5 5-43.3 13.2Z" fill="#FABB1E"/>
    <path d="m125.3 363.3-1-5.2 36.9-11.2 1.5 5-37.4 11.4Z" fill="#FCD361"/>
    <path d="m137.8 360.5-2.4-7.5 5-1.6 2.4 7.5-5 1.6ZM119 372.5 107.8 324l-33.7 8 16.6 47.1 28.3-6.7Z" fill="#FABB1E"/>
    <path d="m126.5 370-7.5 2.5-11.2-48.4 10.8 2.6 8 43.3Z" fill="#FABB1E"/>
    <path d="M119 372.5 107.8 324l10.8 2.6 8 43.3-7.6 2.5Z" fill="#D59814"/>
    <path d="M167.7 349.4a5.7 5.7 0 1 1-11.5 0 5.7 5.7 0 0 1 11.5 0ZM262.8 365l-43.3-13.2 1.6-5 43.3 13.2-1.6 5Z" fill="#FABB1E"/>
    <path d="m257 363.2-37.5-11.4 1.6-5 36.8 11.2-1 5.2Z" fill="#FCD361"/>
    <path d="m244.4 360.4-5-1.6 2.4-7.4 5 1.6-2.4 7.4ZM263.2 372.4l11.2-48.3 33.8 8-16.7 47.2-28.3-6.9Z" fill="#FABB1E"/>
    <path d="m255.7 370 7.5 2.4 11.2-48.3-10.7 2.5-8 43.4Z" fill="#FABB1E"/>
    <path d="m263.2 372.4-7.5-2.4 8-43.4 10.7-2.5-11.2 48.3Z" fill="#D59814"/>
    <path d="M214.5 349.3a5.7 5.7 0 1 0 11.5 0 5.7 5.7 0 0 0-11.5 0ZM257.9 289.6c.1 0 14-13 30.4-8.6 16.8 4.6 30.6 29.7 30.7 30l4.7-2.5c-.6-1.1-15-27.5-34-32.6-19.3-5.2-34.8 9.3-35.5 10l3.7 3.7Z" fill="#FABB1E"/>
    <path d="M319 311c-.1-.3-14-25.4-30.7-30-2.4-.6-4.7-.9-7-.9a38.4 38.4 0 0 0-23.4 9.5l-3.7-3.8a43 43 0 0 1 27-11c2.7 0 5.6.4 8.5 1.1 19 5.1 33.4 31.5 34 32.6L319 311Z" fill="#FCD361"/>
    <path d="m312.9 336.3 10-5.2a21 21 0 0 1-2.3-7.8c-.3-3.7 1.2-5 2.8-5.8 3.5-1.9 5.6-1.1 7-.3 2 1.2 4 3.6 5.8 6.8l10-5.2c-2.7-5.2-6.1-9-10-11.3a17.7 17.7 0 0 0-18.1 0 16.5 16.5 0 0 0-8.9 16.5c.4 5.8 2.9 11 3.7 12.3Z" fill="#FABB1E"/>
    <path d="M260 272a179.3 179.3 0 0 1 13.4-8.4l6.9-4 3.4-1.8 3.5-1.8-3.2 2.2-3.4 2.1A284.8 284.8 0 0 1 260 272ZM254.2 293.6a109.7 109.7 0 0 1 17.5 12.4 108.8 108.8 0 0 1-17.5-12.4ZM259.4 291l7 2.3 7.1 2.7 7 2.8 3.4 1.5 3.4 1.5-3.5-1.1-3.6-1.3a253.5 253.5 0 0 1-20.8-8.4ZM266.2 274a144.7 144.7 0 0 1 14-2.9l7-1.1 3.5-.5 3.5-.4-3.5.9-3.4.7a230.5 230.5 0 0 1-21.1 3.3ZM210.7 288.4a24.8 24.8 0 0 1 4.9-10.3c1.2-1.5 2.8-2.7 4.6-3.5 1.9-.6 4-.6 5.9.1 1.9.7 3.3 2.3 4.1 4.1.5 1 .7 1.9.8 2.9.1 1 0 2-.3 3-.2.5-.5 1-1 1.3a2 2 0 0 1-1.8.2c-.6-.2-1-.7-1.2-1.2a7 7 0 0 1-.5-1.4 24 24 0 0 1 2.9-16.9c1-1.6 2.3-3.1 4-4.2 1.6-1.1 3.5-1.9 5.4-2.1l3-.3 1.4.1c.4.1 1 0 1.4.2 2 .4 3.7 1.1 5.4 2a24 24 0 0 1 8.1 8 25 25 0 0 0-8.3-7.5c-1.7-.9-3.4-1.6-5.3-1.9l-1.4-.2h-1.4c-1 0-1.9 0-2.8.3a12 12 0 0 0-5 2c-1.6 1-2.8 2.5-3.8 4.1a23.1 23.1 0 0 0-2.8 16.2c.2.8.6 1.8 1.2 2l.2.1h.3c.2 0 .4 0 .5-.2.3-.2.5-.5.7-1 .3-.7.4-1.6.3-2.5 0-1-.3-1.8-.7-2.6-.7-1.7-2-3.1-3.7-3.8a7.6 7.6 0 0 0-5.4-.2c-1.7.6-3.2 1.8-4.5 3.2a24.9 24.9 0 0 0-5.2 10ZM125.3 312.3a14 14 0 0 1 9-6.8 11.1 11.1 0 0 1 10.6 3.3 14.6 14.6 0 0 1 4 10.6c0 1-.2 2-1 3-.4.3-1 .6-1.6.6-.5 0-1 0-1.6-.4-.5-.2-.9-.7-1.1-1.2a4 4 0 0 1-.4-1.5c0-1 .2-2 .5-3a20.5 20.5 0 0 1 7-9.1 15 15 0 0 1 20.9 2.5 23 23 0 0 1 4.4 10.5 23 23 0 0 0-4.7-10.1 14.5 14.5 0 0 0-9.6-5.2 15 15 0 0 0-10.4 3 19 19 0 0 0-6.7 8.7c-.3.9-.5 1.8-.5 2.6 0 1 .4 1.7 1 2 .4.3.8.3 1.2.4.4 0 .7-.2 1-.5.5-.5.8-1.5.8-2.3.2-1.9-.2-3.7-.8-5.4-.7-1.8-1.7-3.4-3-4.7a10.5 10.5 0 0 0-10-3.2c-3.6.7-7 3-9 6.2ZM82.5 89.4c0-3.8-.9-7.6-2.7-11-.8-1.6-2-3.1-3.6-4.1A7.6 7.6 0 0 0 71 73a7.2 7.2 0 0 0-4.5 2.8c-.6.8-1 1.6-1.3 2.4-.3.9-.5 1.8-.4 2.6l.5 1 .5.4h.4c.7 0 1.3-.9 1.7-1.7a23 23 0 0 0 1.2-16.4c-.6-1.7-1.4-3.4-2.7-4.8a12 12 0 0 0-4.5-3.2l-2.6-1L58 55l-1.4-.2c-1.8-.2-3.7.1-5.5.6-3.7 1-7 2.9-10 5.4a24 24 0 0 1 9.8-5.9c1.9-.5 3.8-.8 5.8-.7l1.4.2c.5 0 1 0 1.5.2.9.3 1.9.5 2.7 1 1.9.7 3.5 1.9 4.8 3.3 1.3 1.5 2.3 3.3 2.9 5.1a24 24 0 0 1-1.2 17 7 7 0 0 1-.9 1.3c-.4.4-.8.8-1.4 1l-1-.2a2 2 0 0 1-.7-.5c-.4-.5-.6-1-.7-1.5-.1-1.1 0-2.1.4-3 .3-1 .8-1.9 1.5-2.7a7.8 7.8 0 0 1 10.7-1.6c1.6 1.1 2.8 2.7 3.6 4.4a24.8 24.8 0 0 1 2.3 11.2ZM286.6 137.6a25 25 0 0 0-11.2 0c-1.9.5-3.6 1.3-5 2.5a7.5 7.5 0 0 0-2.3 4.9c-.1 1.8.5 3.6 1.7 5 .6.7 1.2 1.3 2 1.8s1.6.9 2.5 1c.4 0 .8 0 1.1-.3.2 0 .3-.2.4-.3l.1-.3v-.2c.1-.6-.6-1.4-1.2-2a23.2 23.2 0 0 0-15.7-5c-1.8.2-3.7.6-5.3 1.5-1.6.9-3 2-4.2 3.6-.6.7-1 1.5-1.5 2.3-.3.4-.4.9-.6 1.3l-.5 1.3c-.6 1.8-.8 3.7-.8 5.6.1 3.7 1.2 7.5 3 10.8a24 24 0 0 1-3.4-10.8c0-2 0-3.9.6-5.8l.5-1.3c.2-.5.3-1 .6-1.4.5-.8 1-1.7 1.6-2.4 1-1.6 2.6-3 4.3-3.9 1.8-1 3.7-1.4 5.7-1.6a24 24 0 0 1 16.3 5.2l1 1.1c.3.4.6 1 .5 1.6 0 .4-.1.6-.3.9a2 2 0 0 1-.7.6c-.5.3-1 .3-1.6.3-1-.1-2-.6-2.8-1.1a9.3 9.3 0 0 1-2.2-2 7.8 7.8 0 0 1 .8-10.8c1.5-1.3 3.4-2 5.2-2.5a24.9 24.9 0 0 1 11.4.4ZM229.4 77.8c-.6-2.2-.7-4.5-.3-6.8.3-2.2 1-4.4 2.3-6.4a13.2 13.2 0 0 1 11.8-6.2 17.5 17.5 0 0 1 12.4 5.8c.7.9 1.4 2 1.5 3.3 0 .6-.3 1.3-.8 1.8a4 4 0 0 1-1.6 1 3 3 0 0 1-2 0l-1.5-1c-.9-1-1.5-2-2-3-1-2.1-1.6-4.4-1.9-6.7-.2-2.3-.2-4.6.2-6.9.8-4.5 3.2-9 6.9-11.8a17.8 17.8 0 0 1 13-3.5 27.8 27.8 0 0 1 12.5 5.3c-3.7-2.5-8-4.4-12.5-4.8a17.4 17.4 0 0 0-12.5 3.6 17.2 17.2 0 0 0-4.3 5 22.7 22.7 0 0 0-.6 19.3c.5 1.1 1 2 1.8 2.8.8.7 1.7 1.2 2.7.9a3 3 0 0 0 1.2-.8c.3-.3.5-.7.5-1.2 0-1-.6-2-1.3-2.8-1.4-1.7-3.3-3-5.3-4-2-.8-4.2-1.4-6.4-1.5a12.7 12.7 0 0 0-11.4 5.7 17 17 0 0 0-2.4 13Z" fill="#17282F"/>
    <path d="M124.3 317.3a3.5 3.5 0 1 1-6.6-2 3.5 3.5 0 0 1 6.6 2Zm-2.1-4.8a4 4 0 1 0-2.4 7.5 4 4 0 0 0 2.4-7.5Zm2.1 4.8a3.5 3.5 0 1 1-6.6-2 3.5 3.5 0 0 1 6.6 2Zm-2.1-4.8a4 4 0 1 0-2.4 7.5 4 4 0 0 0 2.4-7.5Zm2.1 4.8a3.5 3.5 0 1 1-6.6-2 3.5 3.5 0 0 1 6.6 2Zm.5.2a4 4 0 1 0-7.5-2.4 4 4 0 0 0 7.5 2.4Zm.6.1a4.5 4.5 0 0 1-8.7-2.7 4.5 4.5 0 0 1 8.7 2.7Zm-1.9-9.2a8.3 8.3 0 1 0-5 15.8 8.3 8.3 0 0 0 5-15.8Zm.8 9a3.5 3.5 0 1 1-6.6-2.2 3.5 3.5 0 0 1 6.6 2.1Zm-2.1-4.9a4 4 0 1 0-2.4 7.5 4 4 0 0 0 2.4-7.5Zm2.1 4.8a3.5 3.5 0 1 1-6.6-2 3.5 3.5 0 0 1 6.6 2Zm-2.1-4.8a4 4 0 1 0-2.4 7.5 4 4 0 0 0 2.4-7.5Zm2.1 4.8a3.5 3.5 0 1 1-6.6-2 3.5 3.5 0 0 1 6.6 2Zm-2.1-4.8a4 4 0 1 0-2.4 7.5 4 4 0 0 0 2.4-7.5Z" fill="#A6A6A6"/>
    <path d="m120.2 324.3-3-1-.6 2.3 2.7.8.9-2ZM114.7 321.5l-1.5-2.8-1.9 1.1 1.3 2.6 2-1ZM112.8 315.6l1-3-2.2-.5-.9 2.7 2.1.8ZM115.7 310.2l2.8-1.5-1.2-2-2.5 1.4.9 2ZM121.6 308.3l3 1 .5-2.2-2.7-.9-.8 2.1ZM127 311.2l1.5 2.8 2-1.2-1.4-2.5-2 .9ZM128.9 317l-1 3 2.2.6.9-2.7-2.1-.9ZM126 322.5l-2.8 1.4 1.2 2 2.5-1.4-.9-2Z" fill="#A6A6A6"/>
    <path d="M270 282.1a6 6 0 1 1-9.5-7 6 6 0 0 1 9.5 7Zm5.5 4a12.6 12.6 0 1 0-20.3-15 12.6 12.6 0 0 0 20.3 15Z" fill="#17282F"/>
    <path d="m260 289.8-3.9-2.9-1.8 3 3.4 2.5 2.3-2.6ZM253.6 283l-.8-4.8-3.3.7.6 4.3 3.5-.2ZM253.8 273.6l3-4-3-1.8-2.6 3.5 2.6 2.3ZM260.7 267.1l4.8-.7-.8-3.4-4.3.7.3 3.4ZM270 267.4l4 2.9 1.8-3-3.5-2.5-2.2 2.6ZM276.5 274.2l.7 4.8 3.4-.7-.6-4.3-3.5.2ZM276.3 283.6l-3 4 3 1.8 2.6-3.5-2.6-2.3ZM269.4 290l-4.8.8.8 3.3 4.3-.6-.3-3.4ZM265.9 277.5a1.4 1.4 0 1 1-1.7 2.2 1.4 1.4 0 1 1 1.7-2.2Zm-5.1 1.7 2.7 3.4 4.2-.6 1.6-4-2.7-3.4-4.2.6-1.6 4ZM286.8 44.1a3 3 0 1 1-5.8-1.8 3 3 0 0 1 5.8 1.8Zm-1.8-4.2a3.4 3.4 0 1 0-2.1 6.6 3.4 3.4 0 0 0 2-6.6Zm1.8 4.2a3 3 0 1 1-5.8-1.8 3 3 0 0 1 5.8 1.8Zm-1.8-4.2a3.4 3.4 0 1 0-2.1 6.6 3.4 3.4 0 0 0 2-6.6Zm1.8 4.2a3 3 0 1 1-5.8-1.8 3 3 0 0 1 5.8 1.8Zm.4.1a3.4 3.4 0 1 0-6.6-2 3.4 3.4 0 0 0 6.6 2Zm.5.2a4 4 0 0 1-7.6-2.4 4 4 0 0 1 7.6 2.4Zm-1.6-8.1a7.3 7.3 0 1 0-4.4 13.8 7.3 7.3 0 0 0 4.4-13.8Zm.7 7.8a3 3 0 1 1-5.8-1.8 3 3 0 0 1 5.8 1.8Zm-1.8-4.2a3.4 3.4 0 1 0-2.1 6.6 3.4 3.4 0 0 0 2-6.6Zm1.8 4.2a3 3 0 1 1-5.8-1.8 3 3 0 0 1 5.8 1.8Zm-1.8-4.2a3.4 3.4 0 1 0-2.1 6.6 3.4 3.4 0 0 0 2-6.6Zm1.8 4.2a3 3 0 1 1-5.8-1.8 3 3 0 0 1 5.8 1.8Zm-1.8-4.2a3.4 3.4 0 1 0-2.1 6.6 3.4 3.4 0 0 0 2-6.6Z" fill="#17282F"/>
    <path d="m283.2 50.2-2.7-.8-.4 2 2.3.7.8-1.9ZM278.4 47.7l-1.3-2.4-1.7 1 1.2 2.2 1.8-.8ZM276.8 42.6l.8-2.6-2-.5-.7 2.4 1.9.7ZM279.3 37.8l2.4-1.2-1-1.7-2.2 1.1.8 1.8ZM284.4 36.2l2.7.9.4-2-2.4-.7-.7 1.8ZM289.2 38.7l1.3 2.5 1.6-1-1.1-2.3-1.8.8ZM290.8 43.8l-.8 2.7 1.9.4.7-2.3-1.8-.8ZM288.3 48.6l-2.5 1.3 1 1.7 2.3-1.2-.8-1.8ZM251.5 176a3 3 0 1 1-5.8-1.8 3 3 0 0 1 5.8 1.8Zm-1.9-4.2a3.4 3.4 0 1 0-2 6.6 3.4 3.4 0 0 0 2-6.6Zm1.9 4.2a3 3 0 1 1-5.8-1.8 3 3 0 0 1 5.8 1.8Zm-1.9-4.2a3.4 3.4 0 1 0-2 6.6 3.4 3.4 0 0 0 2-6.6Zm1.9 4.2a3 3 0 1 1-5.8-1.8 3 3 0 0 1 5.8 1.8Zm.4.1a3.4 3.4 0 1 0-6.6-2 3.4 3.4 0 0 0 6.6 2Zm.5.2a4 4 0 0 1-7.6-2.4 4 4 0 0 1 7.6 2.4Zm-1.6-8.1a7.3 7.3 0 1 0-4.4 13.8 7.3 7.3 0 0 0 4.4-13.8Zm.7 7.8a3 3 0 1 1-5.8-1.8 3 3 0 0 1 5.8 1.8Zm-1.9-4.2a3.4 3.4 0 1 0-2 6.6 3.4 3.4 0 0 0 2-6.6Zm1.9 4.2a3 3 0 1 1-5.8-1.8 3 3 0 0 1 5.8 1.8Zm-1.9-4.2a3.4 3.4 0 1 0-2 6.6 3.4 3.4 0 0 0 2-6.6Zm1.9 4.2a3 3 0 1 1-5.8-1.8 3 3 0 0 1 5.8 1.8Zm-1.9-4.2a3.4 3.4 0 1 0-2 6.6 3.4 3.4 0 0 0 2-6.6Z" fill="#17282F"/>
    <path d="m247.8 182.1-2.6-.8-.5 1.9 2.4.7.7-1.8ZM243 179.6l-1.2-2.4-1.7 1 1.1 2.2 1.9-.8ZM241.4 174.5l.9-2.7-2-.4-.7 2.4 1.8.7ZM244 169.7l2.4-1.3-1-1.6-2.2 1.1.7 1.8ZM249 168.1l2.7.8.5-1.9-2.4-.7-.7 1.8ZM253.8 170.6l1.3 2.5 1.7-1-1.1-2.3-1.8.8ZM255.5 175.7l-.9 2.7 2 .4.7-2.3-1.8-.8ZM253 180.5l-2.5 1.3 1 1.7 2.3-1.2-.8-1.8ZM41.8 66.6a5 5 0 1 1-9.9-2.4 5 5 0 0 1 10 2.4Zm5.7 1.4a10.9 10.9 0 1 0-21.2-5.2A10.9 10.9 0 0 0 47.5 68Z" fill="#17282F"/>
    <path d="m36.4 76-4-1-.5 3 3.6.9 1-2.9ZM29 72.8l-2.2-3.6-2.4 1.7 2 3.2 2.6-1.3ZM26 65.2l1-4-2.9-.5-.9 3.6 2.9 1ZM29.3 57.8l3.6-2.1-1.7-2.5-3.2 2 1.3 2.6ZM36.9 54.9l4 1 .5-3-3.6-.8-1 2.8ZM44.3 58.1l2.2 3.6 2.4-1.7-2-3.2-2.6 1.3ZM47.2 65.7l-1 4 3 .5.9-3.6-2.9-1ZM44 73.1l-3.6 2.2 1.7 2.4 3.2-2-1.3-2.6ZM37 64.3a1.2 1.2 0 1 1-.6 2.3 1.2 1.2 0 1 1 .5-2.3Zm-3.5 3.1 3.2 1.8 3.2-2v-3.7l-3.3-1.8-3.2 2v3.7Z" fill="#17282F"/>
    <path d="M293.9 180.5c-2.5-3.7-4-8-4-12.5 0-15.9 17.5-28.7 39-28.7 21.6 0 39 12.8 39 28.7 0 15.9-17.4 28.8-39 28.8-10.4 0-19.8-3-26.8-8l-13.4 3.4 5.2-11.7Z" fill="#fff"/>
    <path d="m293.9 180.5-5.1 11.8-.2-.2 13.4-3.5h.2a46 46 0 0 0 23.6 7.7 52.3 52.3 0 0 0 24.4-4.6c3.7-1.9 7.2-4.3 10.1-7.3 2.9-3 5.2-6.5 6.3-10.5 1.2-4 1.1-8.2-.1-12.2-1.2-4-3.6-7.5-6.5-10.4-3-3-6.5-5.3-10.2-7-1-.5-1.9-1-2.9-1.3l-3-1-3-1-3-.5A54.3 54.3 0 0 0 313 142c-4 1.3-7.8 3.1-11.2 5.6a30.8 30.8 0 0 0-8.6 9 22.4 22.4 0 0 0-3.2 12c0 4.2 1.5 8.3 3.8 11.8Zm0 0a23 23 0 0 1-4-11.8c-.1-4.2 1-8.5 3.1-12.2 2.1-3.6 5.2-6.7 8.6-9.2 3.4-2.6 7.3-4.5 11.3-5.8a52.6 52.6 0 0 1 25.1-1.8c1 .2 2.1.3 3.1.6l3.1.8 3 1c1 .4 2 1 3 1.3 3.8 1.9 7.4 4.3 10.4 7.3s5.5 6.7 6.8 10.8c1.2 4 1.3 8.5 0 12.7A26.4 26.4 0 0 1 361 185c-3 3-6.5 5.5-10.4 7.4a53 53 0 0 1-37.2 2.2c-4-1.3-7.9-3.2-11.3-5.6h.1l-13.4 3.3h-.2v-.1l5.4-11.7Z" fill="#17282F"/>
    <path d="M309 172.7v2.2h-8.8v-12.6h8.6v2.2h-6.2v3h5.3v2h-5.3v3.2h6.3ZM313.3 168.5h3l.7-.1.5-.5.3-.6a2.5 2.5 0 0 0 0-1.6 2 2 0 0 0-.4-.7l-.5-.4-.7-.1h-3v4Zm-2.5 6.4v-12.6h5.6a4.1 4.1 0 0 1 2.9 1.3 4.5 4.5 0 0 1 1 2.9c0 .8-.1 1.5-.5 2.2-.4.7-1 1.1-1.7 1.4l2.9 4.8h-2.8l-2.5-4.2h-2.4v4.2h-2.5ZM325 168.5h3l.7-.1.5-.5.4-.6a2.5 2.5 0 0 0 0-1.6l-.4-.7-.6-.4-.6-.1h-3v4Zm-2.4 6.4v-12.6h5.5c.6 0 1.2.1 1.6.4.5.2 1 .5 1.3 1a4.5 4.5 0 0 1 1.1 2.8c0 .8-.2 1.5-.6 2.2-.4.7-1 1.1-1.6 1.4l2.8 4.8H330l-2.6-4.2H325v4.2h-2.4ZM336 168.6l.3 1.6c.2.5.4 1 .7 1.3.3.4.7.7 1.2 1 .4.2 1 .3 1.5.3a3.3 3.3 0 0 0 2.7-1.3c.4-.4.6-.9.8-1.4a5 5 0 0 0 0-3c-.2-.6-.5-1-.8-1.4l-1.1-1c-.5-.2-1-.3-1.6-.3a3.3 3.3 0 0 0-2.7 1.3l-.7 1.4a5 5 0 0 0-.2 1.5Zm3.7 6.3a5.7 5.7 0 0 1-4.4-2 6.5 6.5 0 0 1-1.2-6.7c.3-.8.7-1.5 1.3-2a6.2 6.2 0 0 1 4.4-2 6.2 6.2 0 0 1 5.6 4 6.4 6.4 0 0 1-3.2 8.2c-.8.4-1.6.5-2.5.5ZM350.2 168.5h3l.7-.1.5-.5.3-.6a2.5 2.5 0 0 0 0-1.6l-.4-.7-.5-.4-.7-.1h-3v4Zm-2.5 6.4v-12.6h5.6a4.2 4.2 0 0 1 3.7 2.7l.3 1.5c0 .8-.2 1.5-.6 2.2-.4.7-1 1.1-1.7 1.4l2.9 4.8H355l-2.5-4.2h-2.4v4.2h-2.5Z" fill="#17282F"/>
  </g>
  <defs>
    <clipPath id="a">
      <path fill="#fff" d="M0 0h382v394H0z"/>
    </clipPath>
  </defs>
</svg>
