<svg width="18" height="18" viewBox="0 0 18 18" fill="none" xmlns="http://www.w3.org/2000/svg">
<g clip-path="url(#clip0_61183_126)">
<path d="M11.2791 13.0708H12.6846V15.8818C12.6846 17.0443 11.7389 17.99 10.5764 17.99H2.10838C0.94603 17.99 0.000244141 17.0443 0.000244141 15.8818V2.10814C0.000244141 0.945786 0.94603 0 2.10838 0H10.5764C11.7389 0 12.6846 0.945786 12.6846 2.10814V4.91913H11.2791V2.10814C11.2791 1.72073 10.9639 1.40543 10.5764 1.40543H2.10838C1.72098 1.40543 1.40567 1.72073 1.40567 2.10814V15.8818C1.40567 16.2692 1.72098 16.5845 2.10838 16.5845H10.5764C10.9639 16.5845 11.2791 16.2692 11.2791 15.8818V13.0708ZM14.6875 5.68213L13.6936 6.67598L15.3098 8.29234H6.21947V9.69777H15.3098L13.6936 11.314L14.6875 12.3078L18.0002 8.99506L14.6875 5.68213Z" fill="#BDBDBD"/>
</g>
<defs>
<clipPath id="clip0_61183_126">
<rect width="18" height="18" fill="white" transform="translate(0.000244141)"/>
</clipPath>
</defs>
</svg>
