<svg width="579" height="344" fill="none" xmlns="http://www.w3.org/2000/svg">
  <g clip-path="url(#a)">
    <path d="m559.5 225.2-.1-5-.2-5 .3.3-11.8.1h-11.8l.5-.4v10l-.5-.4h5.8l5.9.1 11.9.3Zm0 0-11.7.2-6 .1H535.6V214.9H547.7l11.8.2h.2v5.2l-.2 5ZM546.3 237.7h-23.5v-10h23.5v10ZM572.6 237.7v-5l-.2-5 .2.3-11.7.2H549l.4-.4v10l-.4-.5h5.8l5.9.2 11.8.2Zm0 0-11.6.3h-6l-6 .1h-.3v-10.8H560.8l11.7.2h.3v.3l-.1 5-.2 5Z" fill="#E7E8E5"/>
    <path d="M224.3 50.9h-23.6v-10h23.6v10ZM211.1 63.5l-.1-5-.1-5 .2.2-11.8.2h-11.8l.5-.4v10l-.5-.4h5.9l5.8.1 12 .3Zm0 0-11.7.2-6 .1H187.2V53h.4l11.8.1 11.8.1h.3v.3l-.2 5v5ZM237.4 63.5l-.1-5-.1-5 .2.2-11.8.2h-11.8l.5-.4v10l-.5-.4h5.9l5.8.1 12 .3Zm0 0-11.7.2-5.9.1h-6.4V53h.4l11.8.1 11.8.1h.3v.3l-.2 5v5ZM87.3 212.6H63.7v-10h23.6v10Z" fill="#A6A6A6"/>
    <path d="m422 106.7-.2-5-.1-5 .2.3-11.8.1h-11.8l.5-.4v10l-.5-.4h5.9l5.8.1 12 .3Zm0 0-11.8.2-6 .1H398V96.4H410l11.8.2h.3v.2l-.2 5v5Z" fill="#E7E8E5"/>
    <path d="M558.1 10h-23.6V0h23.6v10ZM571.3 22.5l-.1-5-.2-5 .3.3-11.8.1-11.8.1.4-.4v10l-.4-.5h5.8l5.9.2 11.9.2Zm0 0-11.7.3h-6l-5.9.1h-.4V12.1H559.5l11.8.2h.2v5.3l-.2 5ZM31.4 10H8V0h23.5v10ZM21.2 188.5a8.1 8.1 0 1 1 7.7 14.4 8.1 8.1 0 0 1-7.7-14.4Zm-8.4-6.2-5.3 8.4 2.6 1.6c.8.5 1.2 1.3 1.1 2.2v1.5c0 1-.5 1.7-1.3 2.2l-2.6 1.4 4.7 8.8 2.6-1.5c.8-.4 1.8-.3 2.5.2l1.3.8c.8.4 1.2 1.2 1.2 2.1v3l9.9.4v-3c0-1 .6-1.8 1.4-2.2a14.2 14.2 0 0 0 1.3-.6c.8-.5 1.7-.5 2.5 0l2.6 1.6 5.2-8.5-2.5-1.6a2.4 2.4 0 0 1-1.1-2.2v-1.5c0-.9.5-1.7 1.2-2.1l2.7-1.5-4.7-8.7-2.7 1.4c-.7.4-1.7.3-2.4-.2l-1.3-.7a2.4 2.4 0 0 1-1.2-2.2v-3l-9.9-.3v3c-.1.9-.7 1.7-1.5 2a14.2 14.2 0 0 0-1.3.7c-.7.5-1.7.5-2.4 0l-2.6-1.5Z" fill="#A6A6A6"/>
    <path d="M555.2 23.4a5.7 5.7 0 1 1 11.4 0 5.7 5.7 0 0 1-11.4 0Zm-6.7 3.2 3.5 6 1.8-1c.6-.4 1.2-.4 1.8 0l.9.5c.5.3.9.8.9 1.5v2.1h7v-2.1c0-.7.3-1.2.9-1.5l.9-.5c.5-.4 1.2-.4 1.7 0l1.9 1 3.4-6-1.8-1.1c-.6-.3-.9-1-.8-1.6a9.7 9.7 0 0 0 0-1c0-.6.2-1.2.8-1.5l1.8-1-3.4-6.1-1.9 1c-.5.4-1.2.3-1.7 0l-1-.5c-.5-.3-.8-.9-.8-1.5v-2.1h-7v2.1c0 .6-.4 1.2-1 1.5l-.8.5c-.5.3-1.2.4-1.8 0l-1.8-1-3.5 6 1.9 1c.5.4.8 1 .8 1.6a9.8 9.8 0 0 0 0 1c0 .7-.3 1.3-.8 1.6l-1.9 1ZM502.6 47.2a12.7 12.7 0 1 1 0 25.3 12.7 12.7 0 0 1 0-25.3Zm0 39.8a27.1 27.1 0 1 0 0-54.3 27.1 27.1 0 0 0 0 54.3Z" fill="#A6A6A6"/>
    <path d="M497.4 85.8h10.4l-.6 7.4H498l-.6-7.4ZM517.2 82.3l7.4-7.4 4.8 5.7L523 87l-5.7-4.8ZM528.8 65.8V55.4l7.4.5v9.3l-7.4.6ZM525.3 46l-7.4-7.4 5.6-4.8 6.6 6.5-4.8 5.6ZM508.8 34.4h-10.5l.6-7.4h9.3l.6 7.4ZM488.9 38l-7.4 7.3-4.8-5.6 6.6-6.6 5.6 4.8ZM477.3 54.4V65l-7.4-.6V55l7.4-.6ZM480.9 74.3l7.3 7.4-5.6 4.8-6.6-6.6 4.9-5.6Z" fill="#A6A6A6"/>
    <path d="M87.2 41.8A28 28 0 1 1 59.4 9.6v28l27.8 4.2Z" fill="#A5ABF1"/>
    <path d="M93.2 32a28 28 0 0 1-.3 4l-27.8-4V3.9a28.1 28.1 0 0 1 28.1 28Z" fill="#4A56E2"/>
    <path d="M73.7 53.7h29.9v-.9h-30v.9Z" fill="#455A64"/>
    <path d="M105.6 55.3V55a1.6 1.6 0 1 1 0-3.3 1.6 1.6 0 0 1 0 3.3v.9a2.5 2.5 0 1 0 0-5.1 2.5 2.5 0 0 0 0 5v-.4ZM136.4 52.7h-23.2v-1h23.2v1ZM126.4 54.8h-13.2v-1h13.2v1Z" fill="#455A64"/>
    <path d="M484.2 304h-6.9v-49h7v49ZM496 304h-6.8v-37.1h6.8v37ZM507.8 304H501v-18.6h6.8v18.5ZM519.7 304h-7v-29.2h7v29.1ZM524.6 304h6.9v-40.3h-6.9v40.2ZM536.4 304h6.9V257h-6.9V304Z" fill="#E7E8E5"/>
    <path d="M473.4 248.8v27.6l.1 27.5-.1-.2h37.9l19 .1 18.9.1-19 .1h-57V262.5l.2-13.8Z" fill="#E7E8E5"/>
    <path d="M471.8 251.6c.5-.2 1-.2 1.6-.2.5 0 1 0 1.5.2l-1.5.2c-.6 0-1 0-1.6-.2ZM471.8 255.7l1.6-.1 1.5.1c-.5.2-1 .2-1.5.2-.6 0-1 0-1.6-.2ZM471.8 260c.5-.2 1-.3 1.6-.3.5 0 1 0 1.5.2-.5.2-1 .2-1.5.2-.6 0-1 0-1.6-.2ZM471.8 264.1l1.6-.2c.5 0 1 0 1.5.2-.5.2-1 .2-1.5.2-.6 0-1 0-1.6-.2ZM471.8 268.3l1.6-.2c.5 0 1 0 1.5.2-.5.2-1 .2-1.5.2-.6 0-1 0-1.6-.2ZM471.8 272.5l1.6-.2c.5 0 1 0 1.5.2-.5.2-1 .2-1.5.2-.6 0-1 0-1.6-.2ZM471.8 276.7c.5-.2 1-.2 1.6-.2.5 0 1 0 1.5.2l-1.5.2c-.6 0-1 0-1.6-.2ZM471.8 280.9c.5-.2 1-.2 1.6-.2.5 0 1 0 1.5.2l-1.5.2c-.6 0-1 0-1.6-.2ZM471.8 285l1.6-.1c.5 0 1 0 1.5.2l-1.5.2c-.6 0-1 0-1.6-.2ZM471.8 289.3c.5-.2 1-.2 1.6-.2.5 0 1 0 1.5.2l-1.5.2c-.6 0-1 0-1.6-.2ZM471.8 293.4l1.6-.1 1.5.1c-.5.2-1 .2-1.5.2-.6 0-1 0-1.6-.2ZM471.8 297.6l1.6-.2c.5 0 1 0 1.5.2-.5.2-1 .2-1.5.2-.6 0-1 0-1.6-.2Z" fill="#E7E8E5"/>
    <path d="m1.5 343.6 72.2-.3h72.2l144.3-.2 144.4.2h72.2l72.2.3-72.2.2h-72.2l-144.4.2-144.3-.1-72.2-.1-72.2-.2ZM52.9 223v-1.7h-.7v1.7h.7Zm0-3.5v-1.8h-.7v1.8h.7Zm0-3.6v-1.8h-.7v1.8h.7Zm0-3.5v-1.8h-.7v1.8h.7Zm0-3.6V207h-.7v1.8h.7Zm0-3.6v-1.7h-.7v1.7h.7Zm0-3.5v-1.8h-.7v1.8h.7Zm0-3.6v-1.8h-.7v1.8h.7Zm0-3.5v-1.8h-.7v1.8h.7Zm0-3.6v-1.8h-.7v1.8h.7Zm0-3.6v-1.7h-.7v1.7h.7Zm0-3.5V182h-.7v1.8h.7Zm0-3.6v-1.8h-.7v1.8h.7Zm0-3.5V175h-.7v1.8h.7Zm0-3.6v-1.8h-.7v1.8h.7Zm0-3.6V168h-.7v1.7h.7Zm0-3.5v-1.8h-.7v1.8h.7Zm0-3.6v-1.8h-.7v1.8h.7Zm0-3.5v-1.8h-.7v1.8h.7Zm0-3.6v-1.8h-.7v1.8h.7Zm0-3.6v-1.7h-.7v1.7h.7Zm0-3.5v-1.8h-.7v1.8h.7Zm0-3.6V143h-.7v1.8h.7Zm0-3.5v-1.8h-.7v1.8h.7Zm0-3.6v-1.8h-.7v1.8h.7Zm0-3.6v-1.7h-.7v1.7h.7Zm0-3.5v-1.8h-.7v1.8h.7Zm0-3.6v-1.8h-.7v1.8h.7Zm0-3.5v-1.8h-.7v1.8h.7Zm0-3.6V118h-.7v1.8h.7Zm0-3.6v-1.7h-.7v1.7h.7Zm0-3.5v-.7h.4v-.6h-1.1v1.3h.7Zm2.2-.7H57v-.6H55v.6Zm3.6 0h1.7v-.6h-1.7v.6Zm3.5 0H64v-.6h-1.8v.6Zm3.6 0h1.8v-.6h-1.8v.6Zm3.6 0H71v-.6h-1.7v.6Zm3.5 0h1.8v-.6h-1.8v.6Zm3.6 0h1.8v-.6h-1.8v.6Zm3.5 0h1.8v-.6H80v.6Zm3.6 0h1.8v-.6h-1.8v.6Zm3.6 0h1.7v-.6h-1.7v.6ZM90.1 113l2.3-1.3-2.3-1.3v2.6Z" fill="#17282F"/>
    <path d="M9 343.6h94.3V228.8H9v114.8Z" fill="#17282F"/>
    <path d="M0 256.1h84v-23.5H0v23.5Z" fill="#273E47"/>
    <path d="M106.2 256.1H84v-23.5h22.2v23.5ZM39.6 238.5h40v-2h-40v2ZM39.6 242h40v-2h-40v2ZM39.6 245.4h40v-2h-40v2ZM39.6 248.8h40v-2h-40v2ZM39.6 252.3h40v-2h-40v2Z" fill="#33535F"/>
    <path d="M29 238.5a2 2 0 1 0 4 0 2 2 0 0 0-4 0ZM22.5 238.5a2 2 0 1 0 4 0 2 2 0 0 0-4 0Z" fill="#FABB1E"/>
    <path d="M16 238.5a2 2 0 1 0 4 0 2 2 0 0 0-4 0Z" fill="#17282F"/>
    <path d="M9.5 238.5a2 2 0 1 0 4 0 2 2 0 0 0-4 0Z" fill="#FABB1E"/>
    <path d="M3 238.5a2 2 0 1 0 4 0 2 2 0 0 0-4 0Z" fill="#fff"/>
    <path d="M29 244.4a2 2 0 1 0 4 0 2 2 0 0 0-4 0Z" fill="#FABB1E"/>
    <path d="M22.5 244.4a2 2 0 1 0 4 0 2 2 0 0 0-4 0Z" fill="#fff"/>
    <path d="M16 244.4a2 2 0 1 0 4 0 2 2 0 0 0-4 0Z" fill="#FABB1E"/>
    <path d="M9.5 244.4a2 2 0 1 0 4 0 2 2 0 0 0-4 0Z" fill="#fff"/>
    <path d="M3 244.4a2 2 0 1 0 4 0 2 2 0 0 0-4 0Z" fill="#FABB1E"/>
    <path d="M29 250.3a2 2 0 1 0 4 0 2 2 0 0 0-4 0Z" fill="#fff"/>
    <path d="M22.5 250.3a2 2 0 1 0 4 0 2 2 0 0 0-4 0ZM16 250.3a2 2 0 1 0 4 0 2 2 0 0 0-4 0ZM9.5 250.3a2 2 0 1 0 4 0 2 2 0 0 0-4 0Z" fill="#FABB1E"/>
    <path d="M3 250.3a2 2 0 1 0 4 0 2 2 0 0 0-4 0ZM35.5 252.3h1.2v-15.8h-1.2v15.8Z" fill="#17282F"/>
    <path d="M0 282.6h84v-23.5H0v23.5Z" fill="#273E47"/>
    <path d="M106.2 282.6H84v-23.5h22.2v23.5ZM39.6 265h40v-2h-40v2ZM39.6 268.4h40v-2h-40v2ZM39.6 271.9h40v-2h-40v2ZM39.6 275.3h40v-2h-40v2ZM39.6 278.7h40v-2h-40v2Z" fill="#33535F"/>
    <path d="M29 265a2 2 0 1 0 4 0 2 2 0 0 0-4 0Z" fill="#FABB1E"/>
    <path d="M22.5 265a2 2 0 1 0 4 0 2 2 0 0 0-4 0Z" fill="#17282F"/>
    <path d="M16 265a2 2 0 1 0 4 0 2 2 0 0 0-4 0ZM9.5 265a2 2 0 1 0 4 0 2 2 0 0 0-4 0ZM3 265a2 2 0 1 0 4 0 2 2 0 0 0-4 0ZM29 270.9a2 2 0 1 0 4 0 2 2 0 0 0-4 0Z" fill="#FABB1E"/>
    <path d="M22.5 270.9a2 2 0 1 0 4 0 2 2 0 0 0-4 0Z" fill="#fff"/>
    <path d="M16 270.9a2 2 0 1 0 4 0 2 2 0 0 0-4 0Z" fill="#FABB1E"/>
    <path d="M9.5 270.9a2 2 0 1 0 4 0 2 2 0 0 0-4 0Z" fill="#fff"/>
    <path d="M3 270.9a2 2 0 1 0 4 0 2 2 0 0 0-4 0Z" fill="#FABB1E"/>
    <path d="M29 276.8a2 2 0 1 0 4 0 2 2 0 0 0-4 0Z" fill="#fff"/>
    <path d="M22.5 276.8a2 2 0 1 0 4 0 2 2 0 0 0-4 0ZM16 276.8a2 2 0 1 0 4 0 2 2 0 0 0-4 0ZM9.5 276.8a2 2 0 1 0 4 0 2 2 0 0 0-4 0Z" fill="#FABB1E"/>
    <path d="M3 276.8a2 2 0 1 0 4 0 2 2 0 0 0-4 0ZM35.5 278.7h1.2V263h-1.2v15.7Z" fill="#17282F"/>
    <path d="M0 309h84v-23.4H0v23.5Z" fill="#273E47"/>
    <path d="M106.2 309H84v-23.4h22.2v23.5ZM39.6 291.5h40v-2h-40v2ZM39.6 294.9h40v-2h-40v2ZM39.6 298.3h40v-2h-40v2ZM39.6 301.8h40v-2h-40v2ZM39.6 305.2h40v-2h-40v2Z" fill="#33535F"/>
    <path d="M29 291.4a2 2 0 1 0 4 0 2 2 0 0 0-4 0Z" fill="#FABB1E"/>
    <path d="M22.5 291.4a2 2 0 1 0 4 0 2 2 0 0 0-4 0Z" fill="#fff"/>
    <path d="M16 291.4a2 2 0 1 0 4 0 2 2 0 0 0-4 0ZM9.5 291.4a2 2 0 1 0 4 0 2 2 0 0 0-4 0ZM3 291.4a2 2 0 1 0 4 0 2 2 0 0 0-4 0Z" fill="#FABB1E"/>
    <path d="M29 297.3a2 2 0 1 0 4 0 2 2 0 0 0-4 0Z" fill="#fff"/>
    <path d="M22.5 297.3a2 2 0 1 0 4 0 2 2 0 0 0-4 0Z" fill="#17282F"/>
    <path d="M16 297.3a2 2 0 1 0 4 0 2 2 0 0 0-4 0Z" fill="#FABB1E"/>
    <path d="M9.5 297.3a2 2 0 1 0 4 0 2 2 0 0 0-4 0Z" fill="#17282F"/>
    <path d="M3 297.3a2 2 0 1 0 4 0 2 2 0 0 0-4 0Z" fill="#fff"/>
    <path d="M29 303.2a2 2 0 1 0 4 0 2 2 0 0 0-4 0ZM22.5 303.2a2 2 0 1 0 4 0 2 2 0 0 0-4 0ZM16 303.2a2 2 0 1 0 4 0 2 2 0 0 0-4 0ZM9.5 303.2a2 2 0 1 0 4 0 2 2 0 0 0-4 0ZM3 303.2a2 2 0 1 0 4 0 2 2 0 0 0-4 0Z" fill="#FABB1E"/>
    <path d="M35.5 305.2h1.2v-15.7h-1.2v15.7Z" fill="#17282F"/>
    <path d="M0 335.6h84V312H0v23.5Z" fill="#273E47"/>
    <path d="M106.2 335.6H84V312h22.2v23.5ZM39.6 318h40v-2h-40v2ZM39.6 321.4h40v-2h-40v2ZM39.6 324.8h40v-2h-40v2ZM39.6 328.2h40v-2h-40v2ZM39.6 331.7h40v-2h-40v2Z" fill="#33535F"/>
    <path d="M29 318a2 2 0 1 0 4 0 2 2 0 0 0-4 0Z" fill="#fff"/>
    <path d="M22.5 318a2 2 0 1 0 4 0 2 2 0 0 0-4 0ZM16 318a2 2 0 1 0 4 0 2 2 0 0 0-4 0ZM9.5 318a2 2 0 1 0 4 0 2 2 0 0 0-4 0ZM3 318a2 2 0 1 0 4 0 2 2 0 0 0-4 0Z" fill="#FABB1E"/>
    <path d="M29 323.8a2 2 0 1 0 4 0 2 2 0 0 0-4 0Z" fill="#17282F"/>
    <path d="M22.5 323.8a2 2 0 1 0 4 0 2 2 0 0 0-4 0Z" fill="#FABB1E"/>
    <path d="M16 323.8a2 2 0 1 0 4 0 2 2 0 0 0-4 0Z" fill="#fff"/>
    <path d="M9.5 323.8a2 2 0 1 0 4 0 2 2 0 0 0-4 0Z" fill="#17282F"/>
    <path d="M3 323.8a2 2 0 1 0 4 0 2 2 0 0 0-4 0ZM29 329.7a2 2 0 1 0 4 0 2 2 0 0 0-4 0Z" fill="#FABB1E"/>
    <path d="M22.5 329.7a2 2 0 1 0 4 0 2 2 0 0 0-4 0Z" fill="#17282F"/>
    <path d="M16 329.7a2 2 0 1 0 4 0 2 2 0 0 0-4 0ZM9.5 329.7a2 2 0 1 0 4 0 2 2 0 0 0-4 0Z" fill="#FABB1E"/>
    <path d="M3 329.7a2 2 0 1 0 4 0 2 2 0 0 0-4 0Z" fill="#fff"/>
    <path d="M35.5 331.7h1.2v-15.8h-1.2v15.8Z" fill="#17282F"/>
    <path d="M535 343.6H45.5v-17.9H535v17.9Z" fill="#BEBFBD"/>
    <path d="M96 325.7h388.4V66.1H96.1v259.6Z" fill="#D4D6D3"/>
    <path d="M98.9 322.6h382.7V69.2H99v253.4Z" fill="#17282F"/>
    <path d="M115.8 306.3h348.9V85.5H115.8v220.8Z" fill="#fff"/>
    <path d="M115.8 94h348.9v-8.5H115.8V94Z" fill="#E0E0E0"/>
    <path d="M123.8 89.8a1.6 1.6 0 1 1-3.2 0 1.6 1.6 0 0 1 3.2 0Z" fill="#BEBFBD"/>
    <path d="M130.4 89.8a1.6 1.6 0 1 1-3.2 0 1.6 1.6 0 0 1 3.2 0Z" fill="#fff"/>
    <path d="M137 89.8a1.6 1.6 0 1 1-3.2 0 1.6 1.6 0 0 1 3.2 0Z" fill="#33535F"/>
    <path d="M164.6 183.5v-8.7l-.1-8.7v-43.5l.1-8.6.1 8.6v8.7l.2 17.4-.1 17.4v8.7l-.2 8.7ZM188.8 183.5v-8.7l-.1-8.7-.1-17.4v-17.4l.1-8.7.1-8.6.1 8.6v8.7l.1 17.4V174.8l-.2 8.7ZM213 183.5l-.1-8.7V166l-.1-17.4v-17.4l.1-8.7.1-8.6.1 8.6v8.7l.1 17.4V174.8l-.2 8.7ZM237.2 183.5l-.1-8.7V166l-.1-17.4V122.6l.2-8.6.1 8.6v8.7l.1 17.4V174.8l-.2 8.7ZM261.4 183.5l-.1-8.7V166l-.1-17.4V122.6l.2-8.6.1 8.6v8.7l.1 17.4v17.4l-.1 8.7-.1 8.7ZM285.6 183.5l-.1-8.7V166l-.1-17.4V122.6l.2-8.6v8.6l.1 8.7.1 17.4v17.4l-.1 8.7-.1 8.7ZM309.8 183.5l-.1-8.7V166l-.2-17.4.1-17.4v-8.7l.2-8.6v8.6l.1 8.7v43.5l-.1 8.7ZM334 183.5l-.1-8.7V166l-.2-17.4.1-17.4v-8.7l.2-8.6v8.6l.1 8.7v43.5l-.1 8.7ZM358.1 183.5v-8.7l-.1-8.7v-43.5l.1-8.6.2 8.6v52.2l-.2 8.7ZM382.3 183.5v-8.7l-.1-8.7v-43.5l.1-8.6.1 8.6v8.7l.2 17.4-.1 17.4v8.7l-.2 8.7ZM406.5 183.5v-8.7l-.1-8.7-.1-17.4v-17.4l.1-8.7.1-8.6.1 8.6v8.7l.2 17.4-.1 17.4v8.7l-.2 8.7ZM430.7 183.5v-8.7l-.1-8.7-.1-17.4v-17.4l.1-8.7.1-8.6.1 8.6v8.7l.1 17.4V174.8l-.2 8.7Z" fill="#E7E8E5"/>
    <path d="m140.4 114 75.5-.2h150.9l75.5.2-75.5.1H216l-75.5-.1ZM140.4 130.8l75.5-.2h150.9l75.5.2-75.5.1-75.4.1h-75.5l-75.5-.2ZM140.4 147.6l75.5-.1h150.9l75.5.1-75.5.2H216l-75.5-.2ZM140.4 164.5l75.5-.2h150.9l75.5.2-75.5.1-75.4.1h-75.5l-75.5-.2Z" fill="#E7E8E5"/>
    <path d="m140.4 147.6 24.2-8.6 24.2-1.3h.1l24.2 9.7 24.2 4.2h-.1l24.2-2.1h-.2l24.2-12.9h.1l24.2-1.9h.1l24.2 5h-.2l24.3-9.2 24.3 2.6h-.1l24.2-6 9 .1-9 .1-24.1 6.2-24.3-2.4h.1l-24.1 9.3h-.2l-24.2-5h.1l-24.2 2h.2l-24.2 12.9h-.2l-24.2 2L213 148h-.1l-24.2-9.7h.1l-24.2 1.1-24.2 8.3Z" fill="#24CCA7"/>
    <path d="M166.7 139.2a2 2 0 1 1-4 0 2 2 0 0 1 4 0Z" fill="#fff"/>
    <path d="M164.6 137.6a1.6 1.6 0 1 0 0 3.1 1.6 1.6 0 0 0 0-3.1Zm0 4a2.5 2.5 0 1 1 0-4.9 2.5 2.5 0 0 1 0 5Z" fill="#24CCA7"/>
    <path d="M190.8 138a2 2 0 1 1-4 0 2 2 0 0 1 4 0Z" fill="#fff"/>
    <path d="M188.8 136.5a1.6 1.6 0 1 0 0 3.1 1.6 1.6 0 0 0 0-3.1Zm0 4a2.5 2.5 0 1 1 0-5 2.5 2.5 0 0 1 0 5Z" fill="#24CCA7"/>
    <path d="M239.2 152a2 2 0 1 1-4 0 2 2 0 0 1 4 0Z" fill="#fff"/>
    <path d="M237.2 150.4a1.6 1.6 0 1 0 0 3.2 1.6 1.6 0 0 0 0-3.2Zm0 4a2.5 2.5 0 1 1 0-4.9 2.5 2.5 0 0 1 0 5Z" fill="#24CCA7"/>
    <path d="M287.4 137.2a2 2 0 1 1-4 0 2 2 0 0 1 4 0Z" fill="#fff"/>
    <path d="M285.4 135.6a1.6 1.6 0 1 0 0 3.1 1.6 1.6 0 0 0 0-3.1Zm0 4a2.5 2.5 0 1 1 0-5 2.5 2.5 0 0 1 0 5Z" fill="#24CCA7"/>
    <path d="M336 140.3a2 2 0 1 1-4 0 2 2 0 0 1 4 0Z" fill="#fff"/>
    <path d="M334 138.7a1.6 1.6 0 1 0 0 3.1 1.6 1.6 0 0 0 0-3.1Zm0 4a2.5 2.5 0 1 1 0-5 2.5 2.5 0 0 1 0 5Z" fill="#FABB1E"/>
    <path d="M263.4 150a2 2 0 1 1-4 0 2 2 0 0 1 4 0Z" fill="#fff"/>
    <path d="M261.4 148.4a1.6 1.6 0 1 0 0 3.1 1.6 1.6 0 0 0 0-3.1Zm0 4a2.5 2.5 0 1 1 0-4.9 2.5 2.5 0 0 1 0 5Z" fill="#24CCA7"/>
    <path d="M311.8 135.1a2 2 0 1 1-4 0 2 2 0 0 1 4 0Z" fill="#fff"/>
    <path d="M309.8 133.6a1.6 1.6 0 1 0 0 3.1 1.6 1.6 0 0 0 0-3.1Zm0 4a2.5 2.5 0 1 1 0-5 2.5 2.5 0 0 1 0 5Z" fill="#FABB1E"/>
    <path d="M384.4 133.1a2 2 0 1 1-4 0 2 2 0 0 1 4 0Z" fill="#fff"/>
    <path d="M382.3 131.6a1.6 1.6 0 1 0 0 3 1.6 1.6 0 0 0 0-3Zm0 4a2.5 2.5 0 1 1 0-5 2.5 2.5 0 0 1 0 5Z" fill="#FABB1E"/>
    <path d="M408.5 127.2a2 2 0 1 1-4 0 2 2 0 0 1 4 0Z" fill="#fff"/>
    <path d="M406.5 125.7a1.6 1.6 0 1 0 0 3.1 1.6 1.6 0 0 0 0-3.1Zm0 4a2.5 2.5 0 1 1 0-5 2.5 2.5 0 0 1 0 5Z" fill="#24CCA7"/>
    <path d="M360.2 130.7a2 2 0 1 1-4 0 2 2 0 0 1 4 0Z" fill="#fff"/>
    <path d="M358.1 129.1a1.6 1.6 0 1 0 0 3.2 1.6 1.6 0 0 0 0-3.2Zm0 4a2.5 2.5 0 1 1 0-4.9 2.5 2.5 0 0 1 0 5Z" fill="#FABB1E"/>
    <path d="M215 147.6a2 2 0 1 1-4 0 2 2 0 0 1 4 0Z" fill="#fff"/>
    <path d="M213 146a1.6 1.6 0 1 0 0 3.2 1.6 1.6 0 0 0 0-3.1Zm0 4.1a2.5 2.5 0 1 1 0-5 2.5 2.5 0 0 1 0 5Z" fill="#24CCA7"/>
    <path d="m140.4 164.6 24.2-3.2 24-16.6h.1l24.2-9 .1-.1h.1l24.2 8.1 24.3 15h-.4l24.2-9.5.2-.1h.2l24.1 12-.4.2 24.2-28.5.2-.2.2.1 24.1 9.1 24.1-3 24.2 1.3 9-3-9 3.1-24.2-1-24.1 3.1h-.1l-24.3-9h.4l-24.1 28.4-.2.3-.3-.2-24.2-11.9h.3c-8 3.3-16 6.4-24.2 9.6H261.2L237 144.5l-24-8.2h.1l-24.2 9-24.2 16.4-24.3 2.9Z" fill="#273E47"/>
    <path d="M166.7 161.6a2 2 0 1 1-4 0 2 2 0 0 1 4 0Z" fill="#fff"/>
    <path d="M164.6 160a1.6 1.6 0 1 0 0 3.2 1.6 1.6 0 0 0 0-3.2Zm0 4a2.5 2.5 0 1 1 0-4.9 2.5 2.5 0 0 1 0 5Z" fill="#273E47"/>
    <path d="M190.8 145a2 2 0 1 1-4 0 2 2 0 0 1 4 0Z" fill="#fff"/>
    <path d="M188.8 143.5a1.6 1.6 0 1 0 0 3.1 1.6 1.6 0 0 0 0-3.1Zm0 4a2.5 2.5 0 1 1 0-5 2.5 2.5 0 0 1 0 5Z" fill="#273E47"/>
    <path d="M239.2 144.3a2 2 0 1 1-4 0 2 2 0 0 1 4 0Z" fill="#fff"/>
    <path d="M237.2 142.7a1.6 1.6 0 1 0 0 3.2 1.6 1.6 0 0 0 0-3.2Zm0 4a2.5 2.5 0 1 1 0-4.9 2.5 2.5 0 0 1 0 5Z" fill="#273E47"/>
    <path d="M287.4 150a2 2 0 1 1-4 0 2 2 0 0 1 4 0Z" fill="#fff"/>
    <path d="M285.4 148.4a1.6 1.6 0 1 0 0 3.1 1.6 1.6 0 0 0 0-3.1Zm0 4a2.5 2.5 0 1 1 0-4.9 2.5 2.5 0 0 1 0 5Z" fill="#273E47"/>
    <path d="M336 133.1a2 2 0 1 1-4 0 2 2 0 0 1 4 0Z" fill="#fff"/>
    <path d="M334 131.6a1.6 1.6 0 1 0 0 3 1.6 1.6 0 0 0 0-3Zm0 4a2.5 2.5 0 1 1 0-5 2.5 2.5 0 0 1 0 5Z" fill="#273E47"/>
    <path d="M263.4 159a2 2 0 1 1-4 0 2 2 0 0 1 4 0Z" fill="#fff"/>
    <path d="M261.4 157.3a1.6 1.6 0 1 0 0 3.2 1.6 1.6 0 0 0 0-3.2Zm0 4a2.5 2.5 0 1 1 0-4.9 2.5 2.5 0 0 1 0 5Z" fill="#273E47"/>
    <path d="M311.8 161.2a2 2 0 1 1-4 0 2 2 0 0 1 4 0Z" fill="#fff"/>
    <path d="M309.8 159.7a1.6 1.6 0 1 0 0 3.1 1.6 1.6 0 0 0 0-3.1Zm0 4a2.5 2.5 0 1 1 0-5 2.5 2.5 0 0 1 0 5Z" fill="#273E47"/>
    <path d="M384.4 139.2a2 2 0 1 1-4 0 2 2 0 0 1 4 0Z" fill="#fff"/>
    <path d="M382.3 137.6a1.6 1.6 0 1 0 0 3.2 1.6 1.6 0 0 0 0-3.2Zm0 4a2.5 2.5 0 1 1 0-4.9 2.5 2.5 0 0 1 0 5Z" fill="#273E47"/>
    <path d="M408.5 140.3a2 2 0 1 1-4 0 2 2 0 0 1 4 0Z" fill="#fff"/>
    <path d="M406.5 138.7a1.6 1.6 0 1 0 0 3.1 1.6 1.6 0 0 0 0-3.1Zm0 4a2.5 2.5 0 1 1 0-5 2.5 2.5 0 0 1 0 5Z" fill="#273E47"/>
    <path d="M360.2 142.3a2 2 0 1 1-4 0 2 2 0 0 1 4 0Z" fill="#fff"/>
    <path d="M358.1 140.7a1.6 1.6 0 1 0 0 3.1 1.6 1.6 0 0 0 0-3Zm0 4a2.5 2.5 0 1 1 0-4.9 2.5 2.5 0 0 1 0 5Z" fill="#273E47"/>
    <path d="M215 136a2 2 0 1 1-4 0 2 2 0 0 1 4 0Z" fill="#fff"/>
    <path d="M213 134.4a1.6 1.6 0 1 0 0 3.2 1.6 1.6 0 0 0 0-3.2Zm0 4a2.5 2.5 0 1 1 0-4.9 2.5 2.5 0 0 1 0 5Z" fill="#273E47"/>
    <path d="m140.4 110.4.2 34.6.1 34.7-.3-.3 75.5-.1h75.5l75.4.1c25.2 0 50.3.2 75.5.3l-75.5.2-75.4.2h-75.5l-75.5-.2h-.2V145l.2-34.6Z" fill="#D4D6D3"/>
    <path d="M138.2 114c.8-.4 1.5-.5 2.2-.5.8 0 1.5.1 2.3.5-.8.3-1.5.4-2.3.4-.7 0-1.4 0-2.2-.4ZM138.2 130.8c.8-.4 1.5-.4 2.2-.5.8 0 1.5.1 2.3.5-.8.4-1.5.4-2.3.4-.7 0-1.4 0-2.2-.4ZM138.2 147.6c.8-.3 1.5-.4 2.2-.4.8 0 1.5 0 2.3.4-.8.4-1.5.5-2.3.5-.7 0-1.4-.1-2.2-.5ZM138.2 164.5c.8-.4 1.5-.5 2.2-.5.8 0 1.5.1 2.3.5-.8.3-1.5.4-2.3.4-.7 0-1.4 0-2.2-.4ZM158.7 186.8c.1.3.3.4.5.4.3 0 .6-.2.6-.5v-1.2 1.2c0 .4-.2.6-.6.6a.6.6 0 0 1-.6-.4ZM160.5 186.7h.8l-.4-1-.4 1Zm.9.2h-.9l-.2.4.6-1.8.7 1.8-.2-.4ZM162.2 185.7v1.6h-.1v-1.8l1.2 1.6v-1.6h.2v1.8h-.1l-1.2-1.6ZM164 185.5h.1v1a.6.6 0 0 0 1.3 0v-1h.1v1a.8.8 0 0 1-1.5 0v-1ZM166.3 186.7h.7l-.3-1-.4 1Zm.8.2h-.9l-.1.4h-.1l.6-1.8h.1l.7 1.8h-.1l-.2-.4ZM168.4 185.6h-.5v.8h.5a.4.4 0 0 0 0-.8Zm.3 1.3-.1-.3h-.7v.7h-.1v-1.8h.6a.5.5 0 0 1 .2 1c.1 0 .3.2.3.4v.4h-.1v-.4ZM170 186.4l-.7-.8v-.1h.1l.6.8.6-.8-.5 1v.8h-.1v-.9ZM182.4 185.5h1.1-1v.8h.8l.1.1h-.9v.9-1.8ZM184 185.5h1.1-1v.8h.9v.1h-.8v.8h.9v.1h-1v-1.8ZM186.2 187.2a.4.4 0 0 0 0-.8h-.4v.8h.4Zm0-1a.3.3 0 1 0 0-.6h-.4v.7h.3Zm-.6-.7h.5c.3 0 .5.2.5.4s0 .3-.2.4c.2 0 .4.3.4.5 0 .3-.3.5-.6.5h-.5v-1.8ZM187.8 185.6h-.5v.8h.5a.4.4 0 0 0 0-.8Zm.4 1.3c0-.1 0-.2-.2-.3h-.7v.7h-.1v-1.8h.6c.3 0 .5.2.5.5 0 .2 0 .4-.3.5.2 0 .3.2.3.4v.2l.1.1v.1h-.2v-.4ZM188.8 185.5v1a.6.6 0 0 0 1.4 0v-1 1a.8.8 0 0 1-1.4 0v-1ZM191 186.7h.8l-.4-1-.4 1Zm.8.2h-.8l-.2.4h-.1l.6-1.8h.1l.7 1.8-.3-.4ZM193.1 185.6h-.5v.8h.5a.4.4 0 0 0 0-.8Zm.4 1.3c0-.1 0-.2-.2-.3h-.7v.7-1.8h.5c.3 0 .5.2.5.5 0 .2 0 .4-.3.5.2 0 .3.2.3.4v.2l.1.1v.1h-.2v-.4ZM194.7 186.4l-.6-.8v-.1l.6.8.6-.8h.1l-.6 1v.8h-.1v-.9ZM210 185.7l-.6.9h-.1l-.6-.9v1.6h-.2v-1.8h.2l.6 1 .7-1h.1v1.8h-.1v-1.6ZM210.9 186.7h.7l-.4-1-.3 1Zm.8.2h-.9l-.2.4.6-1.8h.1l.7 1.8h-.1l-.2-.4ZM213 185.6h-.5v.8h.4a.4.4 0 0 0 0-.8Zm.3 1.3-.1-.3h-.7v.7h-.2v-1.8h.6c.3 0 .6.2.6.5 0 .2-.2.4-.3.5l.2.4v.2h.1v.2h-.1v-.4ZM215 185.4l.6.2v.1h-.1a.9.9 0 0 0-.5-.1c-.5 0-.9.3-.9.8 0 .4.4.8.9.8.2 0 .3 0 .5-.2v.1a1 1 0 0 1-.5.2 1 1 0 0 1-1-1c0-.4.4-.9 1-.9ZM217.2 186.5h-1v.8-1.8.8h1v-.8h.1v1.8-.8ZM234 186.7h.8l-.4-1-.4 1Zm.9.2h-1v.4h-.2l.7-1.8.7 1.8-.2-.4ZM236.2 186.4c.2 0 .4-.2.4-.4s-.2-.4-.4-.4h-.5v.8h.5Zm-.6-.9h.6a.5.5 0 0 1 0 1h-.5v.8h-.1v-1.8ZM237.7 185.6h-.5v.8h.5a.4.4 0 0 0 0-.8Zm.4 1.3-.2-.3h-.7v.7h-.1v-1.8h.6a.5.5 0 0 1 .2 1c.2 0 .3.2.3.4v.2l.1.1v.1h-.2v-.4ZM238.8 185.5h.2v1.8h-.1v-1.8ZM239.7 187.3v-1.8 1.7h1v.1h-1ZM260.5 185.7l-.6.9h-.1l-.6-.9v1.6h-.2v-1.8h.2l.6 1 .7-1h.1v1.8h-.1v-1.6ZM261.4 186.7h.7l-.4-1-.3 1Zm.8.2h-.9l-.2.4.6-1.8h.1l.7 1.8h-.1l-.2-.4ZM263.2 186.4l-.6-.8v-.1l.7.8.5-.8h.1l-.6 1v.8h-.1v-.9ZM282.1 186.8h.1c0 .3.3.4.5.4.3 0 .5-.2.5-.5v-1.2h.1v1.2c0 .4-.3.6-.6.6a.6.6 0 0 1-.6-.4ZM283.8 185.5h.1v1a.6.6 0 0 0 1.3 0v-1h.1v1a.8.8 0 0 1-1.5 0v-1ZM286.1 185.7v1.6h-.1v-1.8h.1l1.2 1.6v-1.6 1.8l-1.2-1.6ZM287.9 185.5h1-.9v.8h.8v.1h-.8v.8h1v.1h-1.1v-1.8ZM306.7 186.8c.2.3.3.4.6.4s.5-.2.5-.5v-1.2h.1v1.2c0 .4-.3.6-.6.6a.6.6 0 0 1-.6-.4ZM308.4 185.5h.2v1a.6.6 0 0 0 1.2 0v-1h.1v1a.8.8 0 0 1-1.5 0v-1ZM310.6 187.3h-.1v-1.8h.1v1.7h1v.1h-1ZM312.2 186.4l-.7-.8v-.1h.1l.6.8.6-.8h.1l-.6 1v.8h-.1v-.9ZM328.6 186.7h.8l-.4-1-.4 1Zm.8.2h-.9l-.1.4h-.1l.6-1.8h.1l.7 1.8h-.1l-.2-.4ZM330 185.5h.1v1a.6.6 0 0 0 1.3 0v-1h.1v1a.8.8 0 0 1-1.5 0v-1ZM333.1 186.5v-.1h.6v.7a1 1 0 0 1-.6.2 1 1 0 0 1-1-1c0-.4.5-.9 1-.9l.6.2v.1a.8.8 0 0 0-.6-.1c-.4 0-.8.3-.8.8 0 .4.4.8.8.8l.5-.1v-.6h-.5ZM334.4 185.5h.2v1a.6.6 0 0 0 1.2 0v-1h.1v1a.8.8 0 0 1-1.5 0v-1ZM336.5 187h.1l.6.2.4-.1.2-.3-.1-.2-.5-.2-.4-.1a.4.4 0 0 1-.2-.4c0-.1 0-.2.2-.3l.4-.2c.3 0 .5.2.6.3a1 1 0 0 0-.6-.1h-.4l-.1.3.1.3h.4l.5.3.2.3c0 .2 0 .3-.2.4l-.5.1-.7-.2v-.1ZM338.9 185.6h-.6v-.1h1.3-.6v1.8h-.1v-1.7ZM350.6 187l.7.2.4-.1.2-.3s0-.2-.2-.2l-.4-.2-.5-.1a.4.4 0 0 1-.2-.4l.2-.3.5-.2.6.3a1 1 0 0 0-.6-.1h-.4l-.1.3.1.3h.4l.5.3.2.3c0 .2 0 .3-.2.4l-.5.1-.7-.2v-.1ZM352.5 185.5h1-.9v.8h.8v.1h-.8v.8h1v.1h-1.1v-1.8ZM354.7 186.4c.2 0 .4-.2.4-.4s-.2-.4-.4-.4h-.5v.8h.5Zm-.6-.9h.6a.5.5 0 0 1 0 1h-.5v.8h-.1v-1.8ZM356.1 185.6h-.6v-.1h1.3-.5v1.8h-.1v-1.7ZM357.4 185.5h1-.9v.8h.8v.1h-.8v.8h1v.1h-1.1v-1.8ZM360.4 185.7l-.6.9-.7-.9v1.6h-.1v-1.8h.1l.7 1 .6-1h.1v1.8-1.6ZM361.9 187.2a.4.4 0 0 0 0-.8h-.5v.8h.5Zm-.2-1c.2 0 .4 0 .4-.3 0-.2-.2-.3-.4-.3h-.3v.7h.3Zm-.5-.7h.5c.3 0 .5.2.5.4s0 .3-.2.4c.2 0 .4.3.4.5 0 .3-.3.5-.5.5h-.6v-1.8ZM362.8 185.5h1.1-1v.8h.9v.1h-.8v.8h.9v.1h-1v-1.8ZM365 185.6h-.4v.8h.5a.4.4 0 0 0 0-.8Zm.4 1.3-.1-.3h-.7v.7h-.1v-1.8h.6c.3 0 .5.2.5.5 0 .2-.1.4-.3.5.1 0 .3.2.3.4v.4h-.1v-.4ZM377 187.2c.4 0 .7-.3.7-.8s-.3-.8-.8-.8c-.4 0-.7.3-.7.8 0 .4.3.8.7.8Zm0-1.8c.5 0 .8.5.9 1 0 .5-.4 1-1 1a1 1 0 0 1-.9-1c0-.5.4-1 1-1ZM379.2 185.4l.6.2v.1a.9.9 0 0 0-.6-.1c-.4 0-.8.3-.8.8 0 .4.4.8.8.8.2 0 .4 0 .5-.2h.1v.1a1 1 0 0 1-.6.2 1 1 0 0 1-1-1c0-.4.5-.9 1-.9ZM380.9 185.6h-.6v-.1h1.3-.6v1.8h-.1v-1.7ZM382.8 187.2c.4 0 .8-.3.8-.8s-.4-.8-.8-.8-.8.3-.8.8c0 .4.4.8.8.8Zm0-1.8c.5 0 1 .5 1 1s-.5 1-1 1a1 1 0 0 1-.9-1c0-.5.4-1 1-1ZM384.8 187.2c.2 0 .4-.2.4-.4s-.2-.4-.4-.4h-.5v.8h.5Zm-.1-1c.2 0 .3 0 .3-.3 0-.2-.1-.3-.3-.3h-.4v.7h.4Zm-.5-.7h.5a.5.5 0 0 1 .3.8c.2 0 .3.3.3.5 0 .3-.2.5-.5.5h-.6v-1.8ZM385.8 185.5h1-.9v.8h.8v.1h-.8v.8h1v.1h-1.1v-1.8ZM388 185.6h-.5v.8h.5a.4.4 0 0 0 0-.8Zm.4 1.3-.2-.3h-.7v.7h-.1v-1.8h.6c.3 0 .5.2.5.5 0 .2 0 .4-.3.5.2 0 .3.2.3.4v.2l.1.1v.1h-.2v-.4ZM399.5 185.7v1.6h-.1v-1.8h.1l1.1 1.6v-1.6h.1v1.8l-1.2-1.6ZM402.2 187.2c.4 0 .7-.3.7-.8s-.3-.8-.7-.8c-.5 0-.8.3-.8.8 0 .4.3.8.8.8Zm0-1.8c.5 0 .9.5.9 1s-.4 1-1 1a1 1 0 0 1-.9-1c0-.5.4-1 1-1ZM404.1 187.3l-.7-1.7v-.1h.1l.7 1.6.7-1.6-.7 1.8ZM405.4 185.5h1.1-1v.8h.9v.1h-.8v.8h.9v.1h-1v-1.8ZM408.5 185.7l-.6.9h-.1l-.6-.9v1.6h-.1v-1.8l.7 1 .7-1h.1v1.8h-.1v-1.6ZM410 187.2c.1 0 .3-.2.3-.4s-.2-.4-.4-.4h-.5v.8h.5Zm-.2-1a.3.3 0 1 0 0-.6h-.4v.7h.4Zm-.5-.7h.5c.3 0 .5.2.5.4l-.2.4c.2 0 .3.3.3.5 0 .3-.2.5-.5.5h-.5v-1.8ZM410.9 185.5h1.1-1v.8h.8v.1h-.8v.8h1v.1h-1.1v-1.8ZM413.1 185.6h-.5v.8h.5a.4.4 0 0 0 0-.8Zm.4 1.3c0-.1 0-.2-.2-.3h-.7v.7-1.8h.5c.3 0 .5.2.5.5 0 .2 0 .4-.3.5.2 0 .3.2.3.4v.2l.1.1v.1h-.2v-.4ZM424.3 187.2a.8.8 0 1 0 0-1.6h-.3v1.6h.3Zm-.4.1v-1.8h.4c.5 0 1 .4 1 1 0 .4-.5.8-1 .8h-.4ZM425.7 185.5h1-.9v.8h.8v.1h-.8v.8h.9v.1h-1v-1.8ZM428.2 185.4l.6.2v.1h-.1a.9.9 0 0 0-.5-.1c-.5 0-.9.3-.9.8 0 .4.4.8.9.8.2 0 .3 0 .5-.2v.1a1 1 0 0 1-.5.2 1 1 0 0 1-1-1c0-.4.4-.9 1-.9ZM429.3 185.5h1.1-1v.8h.9v.1h-.8v.8h.9v.1h-1v-1.8ZM432.4 185.7l-.6.9h-.1l-.6-.9v1.6h-.1v-1.8l.7 1 .7-1h.1v1.8h-.1v-1.6ZM433.8 187.2a.4.4 0 1 0 0-.8h-.5v.8h.5Zm-.1-1a.3.3 0 1 0 0-.6h-.4v.7h.4Zm-.5-.7h.5c.2 0 .5.2.5.4l-.2.4c.2 0 .3.3.3.5 0 .3-.2.5-.5.5h-.6v-1.8ZM434.8 185.5h1.1-1v.8h.8v.1h-.8v.8h1v.1h-1.1v-1.8ZM437 185.6h-.5v.8h.5a.4.4 0 0 0 0-.8Zm.4 1.3c0-.1 0-.2-.2-.3h-.7v.7-1.8h.5c.3 0 .5.2.5.5 0 .2 0 .4-.3.5.2 0 .3.2.3.4v.2l.1.1v.1h-.2v-.4Z" fill="#D4D6D3"/>
    <path d="M186.8 220.5h-46.4v-21.8h46.4v21.8Z" fill="#FABB1E"/>
    <path d="M162.7 220.5h-22.3v-21.8h22.3v21.8Z" fill="#E7E8E5"/>
    <path d="M159.4 209.6a7.9 7.9 0 1 1-15.7 0 7.9 7.9 0 0 1 15.7 0Z" fill="#17282F"/>
    <path d="m158.4 205.7-6.8 4v-8c2.9 0 5.4 1.6 6.8 4Z" fill="#FABB1E"/>
    <path d="M157 209.6a5.4 5.4 0 1 1-10.9 0 5.4 5.4 0 0 1 10.9 0Z" fill="#fff"/>
    <path d="m149.6 209-.2.1h-.1v-.1l.4-.2v1.8-1.6ZM150.3 210.5v-.1a.5.5 0 0 0 1-.4l-.2-.4a.5.5 0 0 0-.4-.1c-.1 0-.2 0-.3.2h-.1v-.9h1-.8v.7a.6.6 0 0 1 .7 0l.2.5a.6.6 0 0 1-.7.6l-.4-.1ZM153.6 210.2c0-.2 0-.4-.2-.4s-.3.2-.3.4.1.4.3.4l.2-.4Zm-.6 0c0-.3.1-.5.4-.5.2 0 .4.2.4.5 0 .2-.2.5-.4.5-.3 0-.4-.3-.4-.5Zm-.9.4 1.3-1.8h.1l-1.3 1.8Zm.5-1.4c0-.2-.2-.3-.3-.3-.2 0-.3.1-.3.3 0 .2.1.4.3.4.1 0 .3-.2.3-.4Zm-.7 0c0-.2.1-.5.4-.5.2 0 .4.3.4.5 0 .3-.2.5-.4.5-.3 0-.4-.2-.4-.5Z" fill="#17282F"/>
    <path d="M165.4 204.4h-8.8v-.5h8.8v.5Z" fill="#fff"/>
    <path d="M166.4 204.1a1 1 0 1 1-2 0 1 1 0 0 1 2 0ZM170.8 204.8l-.1-1.1c-.2-.3-.3-.4-.5-.4s-.5.1-.7.4l-.5 1 .1 1.2.5.3c.2 0 .5 0 .7-.3l.5-1.1Zm.5-1.5c.2.4.2 1 .1 1.5 0 .5-.3 1-.6 1.4-.3.4-.8.7-1.3.7-.4 0-.8-.3-1-.7-.2-.4-.2-.9-.1-1.4 0-.6.3-1.1.6-1.5.4-.4.8-.7 1.3-.7s.8.3 1 .7ZM174 203l-.7 3.6c0 .2-.2.3-.4.3a.3.3 0 0 1-.3-.3l.5-3-.2.1h-.2l-.3-.1c0-.2 0-.4.2-.5l.9-.4h.4v.2ZM181.5 209.5h-13.6v-.7h13.6v.7ZM179.2 211.2H168v-.7h11.3v.7ZM183.8 213h-16v-.8h16v.7ZM174.7 214.7h-6.8v-.7h6.8v.7ZM181.5 216.4h-13.6v-.7h13.6v.7Z" fill="#fff"/>
    <path d="M243.6 220.5h-46.4v-21.8h46.4v21.8Z" fill="#FABB1E"/>
    <path d="M219.5 220.5h-22.3v-21.8h22.3v21.8Z" fill="#E7E8E5"/>
    <path d="M216.2 209.6v1.2a7.9 7.9 0 1 1 0-1.2Z" fill="#17282F"/>
    <path d="M216.2 209.6v1.2l-7.9-1.2v-7.9a7.9 7.9 0 0 1 8 8Z" fill="#FABB1E"/>
    <path d="M213.8 209.6a5.4 5.4 0 1 1-10.9 0 5.4 5.4 0 0 1 10.9 0Z" fill="#fff"/>
    <path d="m205.8 210.5.9-.8.1-.3a.5.5 0 0 0-.5-.5l-.3.1v.1h-.2v-.1h.1c.1-.2.3-.2.4-.2.2 0 .4 0 .5.2l.2.4-.3.4-.7.7h.9v.1h-1.1ZM207.4 210.5v-.1h.1a.5.5 0 0 0 .9-.4c0-.1 0-.3-.2-.4a.5.5 0 0 0-.3-.1c-.2 0-.3 0-.4.2h-.1v-.9h1.1-.9v.7a.6.6 0 0 1 .7 0l.2.5a.6.6 0 0 1-.6.6l-.5-.1ZM210.8 210.2c0-.2-.1-.4-.3-.4-.2 0-.3.2-.3.4s.2.4.3.4c.2 0 .3-.2.3-.4Zm-.7 0c0-.3.2-.5.4-.5.3 0 .4.2.4.5 0 .2-.1.5-.4.5-.2 0-.4-.3-.4-.5Zm-.8.4 1.3-1.8-1.2 1.8h-.1Zm.4-1.4c0-.2-.1-.3-.3-.3-.2 0-.3.1-.3.3 0 .2.2.4.3.4.2 0 .3-.2.3-.4Zm-.7 0c0-.2.2-.5.4-.5.3 0 .4.3.4.5 0 .3-.1.5-.4.5-.2 0-.4-.2-.4-.5Z" fill="#17282F"/>
    <path d="M222.2 204.4h-8.8v-.5h8.8v.5Z" fill="#fff"/>
    <path d="M223.2 204.1a1 1 0 1 1-2 0 1 1 0 0 1 2 0ZM227.6 204.8l-.1-1.1c-.2-.3-.4-.4-.5-.4-.2 0-.5.1-.7.4l-.5 1 .1 1.2c.2.2.3.3.5.3s.5 0 .7-.3l.5-1.1Zm.5-1.5c.2.4.2 1 .1 1.5 0 .5-.3 1-.6 1.4-.4.4-.8.7-1.3.7s-.8-.3-1-.7c-.2-.4-.2-.9-.1-1.4 0-.6.3-1.1.6-1.5.3-.4.8-.7 1.3-.7.4 0 .8.3 1 .7ZM232.1 206.6c0 .2-.2.3-.4.3h-2.4l.1-.6 2.1-1.6.4-.6-.1-.5a.7.7 0 0 0-.6-.3 1 1 0 0 0-.5.2l-.3.2c-.1.1-.3.1-.4 0v-.5l.3-.2c.3-.2.7-.4 1-.4.4 0 .8.2 1 .5.3.3.3.7.3 1-.1.4-.4.8-.7 1l-1.4 1.1h1.3c.2 0 .3.2.3.4ZM237.8 209.5h-13.1v-.7h13v.7ZM232.2 211.2h-7.5v-.7h7.5v.7ZM236.8 213h-12.1v-.8h12.1v.7ZM240.6 214.7h-16v-.7h16v.7ZM234 216.4h-9.3v-.7h9.2v.7Z" fill="#fff"/>
    <path d="M300.4 220.5H254v-21.8h46.4v21.8Z" fill="#FABB1E"/>
    <path d="M276.3 220.5H254v-21.8h22.3v21.8Z" fill="#E7E8E5"/>
    <path d="M273 209.6a7.9 7.9 0 1 1-15.7 0 7.9 7.9 0 0 1 15.7 0Z" fill="#17282F"/>
    <path d="M273 209.6c0 3.4-2 6.2-5 7.4l-2.9-7.4v-7.9a7.9 7.9 0 0 1 8 8Z" fill="#FABB1E"/>
    <path d="M270.6 209.6a5.4 5.4 0 1 1-10.9 0 5.4 5.4 0 0 1 10.9 0Z" fill="#fff"/>
    <path d="M263.6 210.1v-1l-1 1h1Zm0 .2h-1.1v-.1l1-1.4h.2v1.3h.1v.2h-.1v.3h-.1v-.3ZM264.3 210.5v-.1h.1a.5.5 0 0 0 .9-.4c0-.1 0-.3-.2-.4a.5.5 0 0 0-.7 0h-.1v-.8h1.1-.9v.7a.6.6 0 0 1 .7 0l.2.5a.6.6 0 0 1-.6.6l-.5-.1ZM267.7 210.2c0-.2-.2-.4-.3-.4-.2 0-.3.2-.3.4s.1.4.3.4c.2 0 .3-.2.3-.4Zm-.7 0c0-.3.1-.5.4-.5.2 0 .4.2.4.5 0 .2-.2.5-.4.5-.3 0-.4-.3-.4-.5Zm-.9.4 1.4-1.8-1.3 1.8Zm.5-1.4c0-.2-.1-.3-.3-.3-.2 0-.3.1-.3.3 0 .2.2.4.3.4.2 0 .3-.2.3-.4Zm-.7 0c0-.2.2-.5.4-.5.3 0 .4.3.4.5 0 .3-.1.5-.4.5-.2 0-.4-.2-.4-.5Z" fill="#17282F"/>
    <path d="M279 204.4h-8.8v-.5h8.8v.5Z" fill="#fff"/>
    <path d="M280 204.1a1 1 0 1 1-2 0 1 1 0 0 1 2 0ZM284.4 204.8l-.1-1.1c-.2-.3-.4-.4-.6-.4-.1 0-.4.1-.6.4l-.5 1 .1 1.2c.2.2.3.3.5.3s.4 0 .7-.3l.5-1.1Zm.5-1.5c.2.4.2 1 .1 1.5 0 .5-.3 1-.6 1.4-.4.4-.8.7-1.3.7s-.8-.3-1-.7c-.2-.4-.3-.9-.2-1.4.1-.6.4-1.1.7-1.5.3-.4.8-.7 1.3-.7.4 0 .8.3 1 .7ZM288.8 204.3c.3.3.3.7.3 1-.1.5-.3.9-.7 1.2-.3.3-.7.4-1.1.4-.4 0-.8-.2-1-.4v-.5c.2-.2.4-.2.6 0l.5.2c.2 0 .4 0 .6-.2l.4-.6c0-.2 0-.4-.2-.6a.7.7 0 0 0-.5-.2c-.1 0-.2 0-.2-.2-.2 0-.1-.3 0-.4l.8-.7h-1c-.2 0-.3-.1-.3-.3 0-.2.2-.4.4-.4h1.8c.2 0 .3.2.3.4v.1l-.2.1-.9.8c.2 0 .3.2.4.3ZM294 209.5h-12.6v-.7H294v.7ZM297.4 211.2h-16v-.7h16v.7ZM291 213h-9.6v-.8h9.6v.7ZM295.4 214.7h-14v-.7h14v.7ZM287 216.4h-5.6v-.7h5.7v.7Z" fill="#fff"/>
    <path d="M357.2 220.5h-46.4v-21.8h46.4v21.8Z" fill="#FABB1E"/>
    <path d="M333 220.5h-22.2v-21.8H333v21.8Z" fill="#E7E8E5"/>
    <path d="M329.8 209.6a7.8 7.8 0 0 1-7.9 7.9 7.8 7.8 0 0 1-7.8-7.9 7.9 7.9 0 0 1 15.7 0Z" fill="#17282F"/>
    <path d="M329.8 209.6a7.8 7.8 0 0 1-7.9 7.9c-2 0-3.7-.7-5-2l5-5.9v-7.9a7.9 7.9 0 0 1 7.9 8Z" fill="#FABB1E"/>
    <path d="M327.4 209.6a5.4 5.4 0 1 1-10.9 0 5.4 5.4 0 0 1 10.9 0Z" fill="#fff"/>
    <path d="M319.4 210.5v-.1a.5.5 0 0 0 .8 0l.1-.4-.1-.4a.5.5 0 0 0-.4-.1s-.2 0-.3.2h-.1v-.9h1.1-1v.7a.6.6 0 1 1 .3 1.1l-.4-.1ZM321 210.5v-.1h.1a.5.5 0 0 0 .7 0l.2-.4c0-.1 0-.3-.2-.4a.5.5 0 0 0-.3-.1c-.2 0-.3 0-.4.2h-.1v-.9h1.1-.9v.7a.6.6 0 0 1 .7 0l.2.5a.6.6 0 0 1-.6.6l-.5-.1ZM324.4 210.2c0-.2-.1-.4-.3-.4-.2 0-.3.2-.3.4s.2.4.3.4c.2 0 .3-.2.3-.4Zm-.7 0c0-.3.2-.5.4-.5.3 0 .4.2.4.5 0 .2-.1.5-.4.5-.2 0-.4-.3-.4-.5Zm-.8.4 1.3-1.8-1.2 1.8h-.2Zm.4-1.4c0-.2-.1-.3-.3-.3-.1 0-.3.1-.3.3 0 .2.2.4.3.4.2 0 .3-.2.3-.4Zm-.7 0c0-.2.2-.5.4-.5.3 0 .4.3.4.5 0 .3-.1.5-.4.5-.2 0-.4-.2-.4-.5Z" fill="#17282F"/>
    <path d="M335.8 204.4H327v-.5h8.8v.5Z" fill="#fff"/>
    <path d="M336.8 204.1a1 1 0 1 1-2 0 1 1 0 0 1 2 0ZM341.2 204.8c0-.5 0-.9-.2-1.1 0-.3-.3-.4-.5-.4-.1 0-.4.1-.6.4l-.5 1 .1 1.2c.1.2.3.3.5.3s.4 0 .7-.3l.5-1.1Zm.5-1.5c.2.4.2 1 .1 1.5 0 .5-.3 1-.6 1.4-.4.4-.8.7-1.3.7s-.8-.3-1-.7c-.2-.4-.3-.9-.2-1.4.1-.6.4-1.1.7-1.5.3-.4.8-.7 1.3-.7.4 0 .8.3 1 .7ZM345.2 205.4l.3-1.5-1.5 1.5h1.2Zm1 .4c0 .2-.2.3-.3.3h-.1v.5c-.1.2-.3.3-.5.3s-.3-.1-.3-.3l.1-.5H343v-.5l2.8-2.8v-.1h.5v.2l-.4 2.5c.3 0 .4.2.4.4ZM348.5 209.5h-10.3v-.7h10.3v.7ZM354.2 211.2h-16v-.7h16v.7ZM345.5 213h-7.3v-.8h7.3v.7ZM351.3 214.7h-13v-.7h13v.7ZM349.8 216.4h-11.6v-.7h11.6v.7Z" fill="#fff"/>
    <path d="M442.3 220.5h-74.7v-22.2h74.7v22.2Z" fill="#E7E8E5"/>
    <path d="M438.3 203h-66.7v-2h66.7v2Z" fill="#fff"/>
    <path d="M405.7 203h-34.1v-2h34.1v2Z" fill="#FABB1E"/>
    <path d="M438.3 206.7h-66.7v-2h66.7v2Z" fill="#fff"/>
    <path d="M432.8 206.7h-61.2v-2h61.2v2Z" fill="#FABB1E"/>
    <path d="M438.3 210.4h-66.7v-2h66.7v2Z" fill="#fff"/>
    <path d="M391.3 210.4h-19.7v-2h19.7v2Z" fill="#FABB1E"/>
    <path d="M438.3 214h-66.7v-1.9h66.7v2Z" fill="#fff"/>
    <path d="M424 214h-52.4v-1.9H424v2Z" fill="#FABB1E"/>
    <path d="M438.3 217.7h-66.7v-1.9h66.7v2Z" fill="#fff"/>
    <path d="M410.1 217.7h-38.5v-1.9H410v2Z" fill="#FABB1E"/>
    <path d="M243.6 291.9H140.4v-60.6h103.2v60.6Z" fill="#E7E8E5"/>
    <path d="m149.6 281.9 42.4-.1h42.5c-14.2.2-28.3.1-42.5.2l-42.4-.1ZM149.6 286.6l42.4-.1h42.5c-14.2.2-28.3.1-42.5.2l-42.4-.1ZM149.6 276.4h84.9l-42.5.2-42.4-.2ZM149.6 271h84.9l-42.5.1h-42.4ZM149.6 265.6h84.9l-42.5.1h-42.4ZM149.6 260.2l42.4-.1 42.5.1-42.5.1h-42.4ZM149.6 254.8l42.4-.1 42.5.1-42.5.1-42.4-.1ZM149.6 249.4l42.4-.1h42.5c-14.2.2-28.3.2-42.5.2l-42.4-.1ZM149.6 244l42.4-.1h42.5c-14.2.2-28.3.1-42.5.2l-42.4-.1ZM149.6 238.6l42.4-.1h42.5c-14.2.2-28.3.1-42.5.2l-42.4-.1Z" fill="#17282F"/>
    <path d="m153.4 279.4 11.3-11.7 4.7 2.3 12.2-11.8 3.4 2.6 7.9-4.7 10.9 7.6 2.4-2.7 6.3 5.5 9.8-7.7 5.8 4.7 6.4-1.9v25.2h-81.1v-7.4Z" fill="#C5BAFF"/>
    <path d="m153.4 279.4 10.8-2.3 10.3-9.4 4.1 2.6 8.2-7.8 6.6 2.6 2.9-2.3 8 8.2 11.4-12.2 9 8.9 9.8-4.6v23.7h-81.1v-7.4Z" fill="#6E78E8"/>
    <path d="m153.6 279.1 13.9-7.5 7.4 3.2 4.1-1.3 4.4 2.6 11-6.2 1.9 2.7 3.8-1 7.6 3.2 10.3-4.4 6.2 4.4 10.3-7.4v19.4h-80.9v-7.7Z" fill="#4A56E2"/>
    <path d="M152.5 287.1h1.1v-51h-1.1v51Z" fill="#33535F"/>
    <path d="M152.5 286v1.1h82v-1h-82Z" fill="#33535F"/>
    <path d="M253.4 291.9h103.8v-60.6H253.4v60.6Z" fill="#E7E8E5"/>
    <path d="M270.4 284.9h-4.3v-4.3h4.3v4.3Z" fill="#24CCA7"/>
    <path d="M321.2 281.9h-47.7v-1.3h47.7v1.3ZM304.3 284.9h-30.8v-1.3h30.8v1.3ZM264 242.5h82.6H264ZM264 249h82.6l-41.3.1H264ZM264 255.6l41.3-.1h41.3l-41.3.2-41.3-.1ZM264 262.1h82.6H264ZM264 268.7l41.3-.1h41.3l-41.3.1H264Z" fill="#33535F"/>
    <path d="m280.6 238.2.2 18.4c0 6 0 12.2-.2 18.3l-.1-18.3.1-18.4ZM294.9 238.2l.1 18.4-.1 18.3-.1-18.3.1-18.4ZM309.2 238.2l.1 18.4-.1 18.3-.2-18.3c0-6.1 0-12.2.2-18.4ZM323.5 238.2l.1 18.4-.1 18.3c-.2-6.1-.1-12.2-.2-18.3 0-6.1 0-12.2.2-18.4ZM337.7 238.2c.2 6.2.1 12.3.2 18.4 0 6 0 12.2-.2 18.3v-36.7Z" fill="#33535F"/>
    <path d="M346.6 274.9H266v-6.2h14.4a475.2 475.2 0 0 0 .2 0h14.1a491.4 491.4 0 0 0 .2 0H309a509.7 509.7 0 0 0 .2 0h14a474 474 0 0 0 .2 0h14.2a496 496 0 0 0 .1 0V262a1122.5 1122.5 0 0 1 0-6.5 4205 4205 0 0 0 .3 0c2.5-.6 3.6-6.5 8.4-6.6V275Zm-80.5-6.3V264c.8 0 1.6-.8 2.3-1.8h12.1v6.5h-14.4Zm71.6 0h-14.2v-6.4h14.1v6.4Zm-57 0v-6.4h14l.1 6.4h-14.1Zm42.7 0h-14.1v-6.4h14v6.4Zm-28.4 0v-6.4H309.1v6.4H295Zm-26.6-6.5c1.5-2 3-4.8 5.3-4.8 3.3 0 3.9 4.3 6.4 4.8h-11.7Zm69.2 0h-14v-3.8c1.2-.1 2-1.3 2.8-2.7h11.2a311 311 0 0 1 0 6.5Zm-56.6 0c1.8-.5 2.4-4.1 3.7-6.5h6.8c.7.8 1.5 1.4 3.3 1.5v5H281Zm42.4 0h-14.1v-2c2.8-.1 4-3.5 7.4-3.5 2.3 0 3.7 1.7 6.6 1.7v3.8Zm-28.4 0v-5c1 0 1.8-.7 2.3-1.5h8.5c.6 2.4 1.4 4.4 3.3 4.5v2a2390.2 2390.2 0 0 1-14 0Zm42.3-6.6h-10.8c1-1.8 2.2-4 4.3-4 3.5 0 4.1 3.6 6.5 4Zm-52.5 0c.7-1 1.5-1.9 2.8-1.9 2.1 0 2.9 1 3.7 2h-6.5Zm12.6 0c1.2-2.1 1.4-5.8 3.9-6.4h1.2c2 .5 2.5 3.6 3.2 6.4h-8.4Z" fill="#6E78E8"/>
    <path d="M302.5 249.1h-1.2a3.1 3.1 0 0 1 1.2 0ZM305.3 255.7h-8v-.2h8.4v.2h-.4Zm-13.8 0h-6.8l.1-.2h6.5l.2.1Zm35 0v-.2a6514.9 6514.9 0 0 1 11.1 0v.1h-11.2Zm11.4 0v-.1h.2a3440.8 3440.8 0 0 1-.2 0ZM305.3 262.2H295v-.2a8797.6 8797.6 0 0 0 14 0v.2h-3.7Zm4 0v-.2h14v.2h-14Zm-14.5 0h-14l.2-.1h13.8Zm28.8 0v-.1h14-14Zm-43 0h-12.2v-.1a5683.2 5683.2 0 0 1 12.1 0Zm57.3 0v-.1ZM305.3 268.7H295v-.1H309v.1h-3.8Zm4 0v-.1h14v.1h-14Zm-14.5 0h-14.1v-.1h14.1v.1Zm28.7 0v-.1a8306.7 8306.7 0 0 1 0 .1Zm-43 0h-14.4l14.4-.1v.1Zm57.3 0Z" fill="#998935"/>
    <path d="M280.6 274.9v-12.7a4 4 0 0 0 .1 0v12.7ZM294.9 274.9v-6.3l-.1-6.4v-.2a1039.6 1039.6 0 0 0 .1-5h.1V268.8l-.1 6.2ZM309.2 274.9l-.1-6.2V260h.2V268.8l-.1 6.2ZM323.5 274.9l-.1-6.2V258.3h.2v10.4l-.1 6.2ZM337.7 274.9v-12.8a1262.3 1262.3 0 0 0 0-6.5 2 2 0 0 0 .2 0 311.7 311.7 0 0 1 0 6.5v6.5l-.2 6.3Z" fill="#998935"/>
    <path d="M266 264.2v-.6c.8 0 1.9-1.6 2.7-2.7 1.3-2 2.6-4 5-4 2.2 0 3.3 1.5 4.3 2.8.8 1 1.6 2 2.6 2s1.8-2 2.4-3.4c1-2.5 2-5 4.6-5 2.3 0 3.2 1 4 1.8.8.9 1.5 1.6 3.3 1.6 1.6 0 2.3-1.8 2.9-3.6.7-2.2 1.4-4.4 4.1-4.4 2.7 0 3.4 2.8 4.1 5.7.6 2.4 1.3 5.4 3.2 5.4 1 0 2-.8 3-1.5 1-1 2.4-2 4.5-2 1.3 0 2.3.4 3.2.8 1 .5 2 1 3.5 1 1 0 2-1.7 2.7-3 1.2-1.9 2.3-3.8 4.7-3.8 2.4 0 3.5 1.2 4.6 2.4.7.8 1.4 1.6 2.4 1.6.7 0 1.6-1.3 2.4-2.4 1.4-1.9 3-4.2 6.4-4.2v.7c-2.6 0-4 2-5.3 3.8-1.1 1.5-2 2.7-3.6 2.7s-2.4-1-3.3-2c-1-1-2-2-3.6-2s-2.7 1.8-3.6 3.4c-1 1.8-2 3.3-3.8 3.3-1.8 0-3-.5-4.2-1-.9-.4-1.6-.7-2.5-.7-1.5 0-2.6.9-3.6 1.7-1.1.9-2.2 1.8-4 1.8-2.7 0-3.4-2.9-4.2-5.9-.6-2.3-1.3-5.1-3-5.1s-2.4 2-3 3.8c-.7 2.1-1.4 4.2-4 4.2-2.5 0-3.4-1-4.3-2-.7-.8-1.4-1.5-3-1.5-1.7 0-2.7 2.5-3.5 4.5-1 2.3-1.6 4-3.5 4-1.8 0-2.7-1.2-3.7-2.4-.8-1.2-1.7-2.4-3.2-2.4-1.6 0-3 2-4 3.5-1.2 1.8-2 3.1-3.6 3.1Z" fill="#4A56E2"/>
    <path d="M266 238.6c.2 6 .2 12.1.2 18.2l.1 18.1-.2-.1H326.5l20 .1h-20l-20.2.1h-40.5V256.9l.3-18.2Z" fill="#33535F"/>
    <path d="M442.3 291.9h-74.7v-60.6h74.7v60.6Z" fill="#E7E8E5"/>
    <path d="m376.2 239.6 34.4-.1h23l-23 .1h-34.4ZM376.2 242.4h57.4-57.4ZM376.2 245.2h57.4l-23 .1h-34.4ZM376.2 248h57.4c-11.4.2-11.5.2-23 .2l-34.4-.1ZM376.2 251l34.4-.2 23 .1-23 .1h-34.4ZM376.2 253.8l34.4-.1h23c-11.4.2-11.5.1-23 .2l-34.4-.1ZM376.2 256.6h57.4l-23 .1h-34.4ZM376.2 259.5l34.4-.1h23c-11.4.2-11.5.1-23 .2l-34.4-.1ZM376.2 262.3h57.4l-23 .1h-34.4ZM376.2 265.2l34.4-.1h23c-11.4.2-11.5.1-23 .2l-34.4-.1ZM376.2 268h57.4l-23 .1h-34.4ZM376.2 270.9l34.4-.1h23l-23 .2-34.4-.1ZM376.2 273.7h57.4l-23 .1h-34.4ZM376.2 276.6l34.4-.1h23l-23 .2-34.4-.1ZM376.2 279.4h57.4l-23 .1h-34.4Z" fill="#33535F"/>
    <path d="M388.7 259.5h-5.2v23.2h5.2v-23.2Z" fill="#C5BAFF"/>
    <path d="M398.4 249.6h-5.2v33.1h5.2v-33Z" fill="#fff"/>
    <path d="M408 256.7H403v26h5.2v-26Z" fill="#999B9B"/>
    <path d="M417.8 248h-5.2v34.7h5.2v-34.6Z" fill="#C5BAFF"/>
    <path d="M427.5 252.7h-5.2v30h5.2v-30Z" fill="#fff"/>
    <path d="m378 237.6.2 11.2v11.3l.2 22.6-.4-.3h33.6l16.8.1 5.3.2-5.3.2-16.8.1h-33.9V260.2l.2-11.3.1-11.2ZM388.7 285.6h-5.2v-.5h5.2v.5ZM398.4 285.6h-5.2v-.5h5.2v.5ZM408 285.6H403v-.5h5.2v.5ZM417.8 285.6h-5.2v-.5h5.2v.5ZM427.5 285.6h-5.2v-.5h5.2v.5Z" fill="#33535F"/>
    <path d="M529.1 289.8s-14.8-3.3-22.9-10.8c-8-7.4-12.6-20.8-12.6-20.8s8.7 1.6 16.6 4.3a28 28 0 0 1 5 7.1s.2-2.9 0-5c2.1 1 4 2 5.3 3.2 6.7 5.8 8.6 22 8.6 22Z" fill="#FFD8D0"/>
    <path d="m502.8 264.7-6-4.1c-.1-.1 0-.3 0-.2a183.7 183.7 0 0 1 15 10l-.2-.5a81.6 81.6 0 0 0-4.6-6.4h.1l3.4 4a30 30 0 0 1 2 3.2l.3.4a85.7 85.7 0 0 1 8.7 7.9c-.6-1.8-1-3.6-1.8-5.4h.1c.7 1.8 1.4 3.7 1.9 5.6l3.2 3.8v-.3a75.5 75.5 0 0 0-1.8-6 23 23 0 0 0-4-7.5h.1a28.8 28.8 0 0 1 6.1 13.6l.3 1 1.3 1.9c2.5 3.8 4.5 8 6.2 12.2a141.3 141.3 0 0 1 4.6 14.8 111 111 0 0 0-10.8-25.1c-1-1.6-2.2-3.2-3.4-4.7a31.8 31.8 0 0 1-14.4-5l-3.6-2.7a37 37 0 0 0 17.5 7.2 62.5 62.5 0 0 0-4.3-5l-1.5-1.4a35 35 0 0 0-5.5-3.1l-7.2-3.7-4-2v-.1l7.4 3.4c2.3 1 4.6 2.1 6.8 3.3l.3.2a114 114 0 0 0-12.2-9.3Z" fill="#17282F"/>
    <path d="m503.7 272.3 3.6 1.6c1.2.5 2.4 1.2 3.5 1.9l-3.5-1.6-3.6-1.8v-.1Z" fill="#17282F"/>
    <path d="M577 215.4s-4 4.8-4.3 12.3l.3 5.3c-5.5 3-9.6 8.2-9.6 8.2 3-1.8 7.4-2.6 9.7-2.3 0 1.4-.3 3-.6 4.4-1 0-3 .1-6.2 1.3 0 0 3.2-.1 5.6 1-2.6 8.5-10.4 17-32 20.7 0 0-4.2-14.7 3.8-30.4 6.4-12.7 33.4-20.5 33.4-20.5Z" fill="#FFD8D0"/>
    <path d="M532.4 302.1a216 216 0 0 1 5.7-31.8 85 85 0 0 1 3.1-9.6v-1.8a62.4 62.4 0 0 1 1.5-14.3l1.3-4.6a75.9 75.9 0 0 0-2.4 18.4l.1 1a69.7 69.7 0 0 1 11-18.6l.3-1.2a116.3 116.3 0 0 1 1-4.4c.5-2 1.3-3.8 1.9-5.7l-1.3 5.8-.7 3-.3 1.4 2.7-3.2a205 205 0 0 1 13.2-13.7l1.7-1.6a298.8 298.8 0 0 0-15.5 17.5 117.1 117.1 0 0 1 9.3-5.5c1.4-.7 2.9-1.2 4.2-2-1.3.6-2.6 1.5-3.9 2.3a158 158 0 0 0-3.9 2.3l-3.8 2.5-3.2 2a102 102 0 0 0-10.5 16.9l.8-.4 2-.8 3.8-1.7c2.4-1 4.9-2 7.3-3.2 1.3-.6 2.6-1.3 3.8-2.1-4.4 3.1-9.3 5.3-14.2 7.4l-2.2 1-1.7.7a75.8 75.8 0 0 0-3.7 10 203.7 203.7 0 0 0-7.4 42.2c0 1-.2 1.8-.3 2.7 0 .4-.5.4-.5 0 0-3.6.4-7.3.8-10.9Z" fill="#17282F"/>
    <path d="M545.5 242.5c.4-2.2 1-4.4 1.6-6.5l-1.3 6.4-1 6.6c0-2.2.3-4.4.7-6.5ZM554.8 248.4c1.5-1 3.1-1.8 4.7-2.6l2.4-1.2 2.5-1.1-2.3 1.4-2.4 1.3c-1.5.8-3.1 1.8-4.8 2.5a.1.1 0 0 1 0-.3Z" fill="#17282F"/>
    <path d="M528.7 263.7H527c-4-1.3-13.2-4.8-18-11.9-6-8.7-8-23.7-8-25 .2 1.2 3 14.3 12.3 20.3 7 4.6 13.7 8.4 15.5 16.6Z" fill="#E4E7E5"/>
    <path d="m528.8 264.2-1.9-.5h1.8l.1.5Z" fill="#CFD3D1"/>
    <path d="M516.2 240.6c2.4 2.4 4.2 5 5 8.3-1-3-2.7-6-5-8.2Z" fill="#17282F"/>
    <path d="M528.8 264.2s-13.6-3.2-20-12.4c-5.9-8.7-7.8-23.7-8-25 0 0 6.5 9.3 13.4 11.6a23 23 0 0 1 14.6 25.8Z" fill="#F7A9A0"/>
    <path d="M503.2 231.9c1.3 2.5 2.6 5 4.2 7.2a29 29 0 0 0 5.7 5.8c1.8 1.5 3.8 2.8 5.7 4.2a27 27 0 0 0-3.7-4.4c-1.7-1.9-3.4-3.7-5-5.7-.8-1-1.5-2.3-2.1-3.5 2.3 4.6 6.7 7.5 9.9 11.4l1.2 1.8.8 1.3c1.7 1.5 3.3 3 4.7 4.8a19 19 0 0 0-2-6.2 12 12 0 0 1 2 6.4h.2a27 27 0 0 1 1.8 2.9l-.2-1a68 68 0 0 0-.9-4c-.7-2.7-1.7-5.3-3.3-7.7h.1a29.3 29.3 0 0 1 4.7 11.6l.4 2 .2 1a49 49 0 0 1 3.2 9.3 144 144 0 0 1 3.9 35.6l-.1 2.3c0 .2-.4.3-.4 0 0-3-.2-6-.4-9a188.8 188.8 0 0 0-3.6-26.8c-1-5-2.5-10-5.2-14.4-1.4-2.2-3-4.1-5-5.8-1.9-1.8-4-3.3-6-4.8a33.1 33.1 0 0 1-9.9-12.4l-1-1.9h.1Z" fill="#17282F"/>
    <path d="M505.6 233.9a37.2 37.2 0 0 1-.1 0Z" fill="#17282F"/>
    <path d="M579 258.2s.2 19.4-11.4 25c-7.1 3.4-12.2 3-16.9 2.6-3-.2-5.8-.5-8.8.2.3-.4 6-8.5 14.9-10.8 9.2-2.3 19.4-9 22.2-17Z" fill="#FFD8D0"/>
    <path d="M555.5 286c-1.7 0-3.2 0-4.8-.2l-4.5-.2c-1.4 0-2.8 0-4.3.4.3-.1 6-3 13.2-3.9 7.3-.9 21.3-5.6 23.9-23.9 0 1.3-.2 19.6-11.4 25a26.6 26.6 0 0 1-12 2.9Z" fill="#F7A9A0"/>
    <path d="M541.1 286.4c1.4-1.3 3-2.3 4.6-3.1l.8-.4.4-.4a15.8 15.8 0 0 1 3.4-2.7c2-1.2 4-2 6-3l-2.8 1.7-2.8 1.6a19.8 19.8 0 0 0-2.9 2.3c1.3-.4 2.6-.8 4-1 2-.5 4.2-.8 6.4-1.2l3-.9 2.9-2.3 3-3.4c-1.4 2-2.9 3.8-4.7 5.3a24.8 24.8 0 0 0 11.4-8.8 27.1 27.1 0 0 1-13 10.1c-2 .7-4.2 1.1-6.3 1.5-2 .4-4.1.8-6.1 1.5-1.9.6-3.6 1.5-5.2 2.7-3 2.2-5.3 5.3-7 8.6a43.3 43.3 0 0 0-3.8 14.2c0 .2-.3.2-.3 0 .5-8.2 2.7-16.7 9-22.3Z" fill="#17282F"/>
    <path d="M554.6 280c.6-.9 1.4-1.6 2.4-2.1 1-.7 2-1.3 2.8-2.4-.6 1-1.4 1.7-2.4 2.3-1 .7-2 1.3-2.7 2.3h-.1Z" fill="#17282F"/>
    <path d="m548.4 300.7-.5 10.7-1.6 32.6h-24.4l-1.6-32.6-.5-10.7h28.6Z" fill="#273E47"/>
    <path d="m548.4 300.7-.5 10.7h-27.6l-.5-10.7h28.6Z" fill="#17282F"/>
    <path d="M550.1 306.4h-32v-10.1h32v10.1Z" fill="#273E47"/>
    <path d="M562.2 182.7h-69V94.2h58.5l10.5 10.5v78Z" fill="#fff"/>
    <path d="M562.2 182.7v-78l-10.6-10.5h-58.4.1v88.5h69Zm0 0h-69l-.1-88.5V94h58.6l10.5 10.6v78Z" fill="#17282F"/>
    <path d="M500.8 113h53.9l-27 .2-27-.1ZM500.8 115.3h53.9-54ZM500.8 117.5h53.9-54ZM500.8 119.7h53.9-54ZM500.8 121.9l27-.1h26.9l-27 .1h-27ZM500.8 124h53.9l-27 .1h-27ZM500.8 126.3l27-.1h26.9l-27 .1h-27ZM500.8 128.5l27-.1h26.9l-27 .1h-27ZM500.8 130.7l27-.1h26.9l-27 .1h-27ZM500.8 132.9l27-.1h26.9l-27 .1h-27ZM500.8 135h53.9l-27 .1h-27ZM500.8 137.2h53.9l-27 .1h-27ZM500.8 139.4h53.9l-27 .1h-27ZM500.8 141.6h53.9l-27 .1h-27ZM500.8 143.8h53.9l-27 .1h-27Z" fill="#BEBFBD"/>
    <path d="M510.5 137.2h-4v9.2h4v-9.2ZM518.1 132.3h-4v14.1h4v-14.1ZM525.7 126.8h-4v19.6h4v-19.6ZM533.3 124.4h-4v22h4v-22ZM540.9 120.2h-4.1v26.2h4v-26.2ZM548.5 116h-4.1v30.4h4V116Z" fill="#24CCA7"/>
    <path d="m502.2 111.5.1 8.8.1 8.7v17.4l-.2-.3h26.2l13.1.1 13.2.2-13.2.1-13 .1H502V129l.1-8.7.1-8.8ZM510.5 148.6h-4v-.4h4v.4ZM518.1 148.6h-4v-.4h4v.4ZM525.7 148.6h-4v-.4h4v.4ZM533.3 148.6h-4v-.4h4v.4ZM540.9 148.6h-4.1v-.4h4v.4ZM548.5 148.6h-4.1v-.4h4v.4Z" fill="#BEBFBD"/>
    <path d="M507 138.3a49.4 49.4 0 0 0 11.8-1.5c3.8-.9 7.7-2.1 11.2-4a40 40 0 0 0 9.8-6.6l.6-.5.5-.5 1-1.1 2-2.3c1.2-1.5 2.3-3.2 3.3-5a35.6 35.6 0 0 1-17 16.6 48.8 48.8 0 0 1-23.3 5Z" fill="#17282F"/>
    <path d="m548.4 119.7-.6.2-.7-2.8-2.7.9-.2-.6 3.3-1 .9 3.3Z" fill="#17282F"/>
    <path d="M499.6 160.1h56.2v2.3h-56.2V160ZM499.6 165.8h31.7v2.3h-31.7v-2.3ZM511.9 104h31.6v2.2H512V104Z" fill="#D4D6D3"/>
    <path d="M562.2 104.7h-10.5V94.2l10.5 10.5Z" fill="#E7E8E5"/>
    <path d="M578.6 251.4h-69V163h58.5l10.5 10.5v78Z" fill="#fff"/>
    <path d="M578.6 251.4v-78L568 163h-58.4.1v88.4h69Zm0 0h-69V163h58.5l10.5 10.5v78Z" fill="#17282F"/>
    <path d="M528.3 172.7h31.6v2.3h-31.6v-2.3Z" fill="#D4D6D3"/>
    <path d="M578.6 173.5h-10.5v-10.6l10.5 10.6Z" fill="#E7E8E5"/>
    <path d="M530.7 189.7a5.2 5.2 0 1 1-10.4 0 5.2 5.2 0 0 1 10.4 0Z" fill="#33535F"/>
    <path d="m530 187.1-4.5 2.6v-5.2c2 0 3.6 1 4.5 2.6Z" fill="#24CCA7"/>
    <path d="M529.1 189.7a3.6 3.6 0 1 1-7.2 0 3.6 3.6 0 0 1 7.2 0Z" fill="#fff"/>
    <path d="M527 189.4h-3v-.5h3v.5Z" fill="#17282F"/>
    <path d="M527.8 190.5h-4.5v-.4h4.5v.4Z" fill="#999B9B"/>
    <path d="M530.7 203.2v.8a5.2 5.2 0 1 1 0-.8Z" fill="#33535F"/>
    <path d="M530.7 203.2v.8l-5.2-.8V198a5.2 5.2 0 0 1 5.2 5.2Z" fill="#FF6596"/>
    <path d="M529.1 203.2a3.6 3.6 0 1 1-7.2 0 3.6 3.6 0 0 1 7.2 0Z" fill="#fff"/>
    <path d="M527 202.9h-3v-.5h3v.5Z" fill="#17282F"/>
    <path d="M527.8 204h-4.5v-.4h4.5v.4Z" fill="#999B9B"/>
    <path d="M557.6 189.7a5.2 5.2 0 1 1-10.4 0 5.2 5.2 0 0 1 10.4 0Z" fill="#33535F"/>
    <path d="M557.6 189.7c0 2.3-1.3 4.2-3.3 5l-1.9-5v-5.2a5.2 5.2 0 0 1 5.2 5.2Z" fill="#6E78E8"/>
    <path d="M556 189.7a3.6 3.6 0 1 1-7.2 0 3.6 3.6 0 0 1 7.2 0Z" fill="#fff"/>
    <path d="M554 189.4h-3v-.5h3v.5Z" fill="#17282F"/>
    <path d="M554.7 190.5h-4.5v-.4h4.5v.4Z" fill="#999B9B"/>
    <path d="M557.6 203.2a5.2 5.2 0 0 1-5.2 5.3 5.2 5.2 0 0 1-5.2-5.3 5.2 5.2 0 0 1 10.4 0Z" fill="#33535F"/>
    <path d="M557.6 203.2a5.2 5.2 0 0 1-5.2 5.3c-1.3 0-2.5-.5-3.4-1.3l3.4-4V198a5.2 5.2 0 0 1 5.2 5.2Z" fill="#FABB1E"/>
    <path d="M556 203.2a3.6 3.6 0 1 1-7.2 0 3.6 3.6 0 0 1 7.2 0Z" fill="#fff"/>
    <path d="M554 202.9h-3v-.5h3v.5Z" fill="#17282F"/>
    <path d="M554.7 204h-4.5v-.4h4.5v.4Z" fill="#999B9B"/>
    <path d="M541 188.5h-7v-.4h7v.4ZM541 190h-7v-.5h7v.4ZM541 191.3h-7v-.4h7v.4ZM541 202h-7v-.4h7v.4ZM541 203.4h-7v-.4h7v.4ZM541 204.8h-7v-.4h7v.4ZM568 188.5h-7.2v-.4h7.1v.4ZM568 190h-7.2v-.5h7.1v.4ZM568 191.3h-7.2v-.4h7.1v.4ZM568 202h-7.2v-.4h7.1v.4ZM568 203.4h-7.2v-.4h7.1v.4ZM568 204.8h-7.2v-.4h7.1v.4Z" fill="#33535F"/>
    <path d="m541.4 215.9 13.3-.2c4.4 0 8.8 0 13.2.2h-26.5ZM541.4 218.4l13.3-.1h13.2c-4.4.2-8.8.1-13.2.2l-13.3-.1ZM541.4 220.9l13.3-.1 13.2.1-13.2.1-13.3-.1ZM541.4 223.4H568l-13.2.1h-13.3ZM541.4 226c4.4-.2 8.9-.1 13.3-.2l13.2.1-13.2.2c-4.4 0-8.9 0-13.3-.2ZM541.4 228.5l7-.2c2.2 0 4.5 0 6.8.2h-13.8ZM520.3 235.5h47.6l-23.8.1h-23.8ZM520.3 238h47.6l-23.8.2-23.8-.1ZM520.3 240.6l12.4-.1h12.4c-4.1.2-8.3.1-12.4.2l-12.4-.1Z" fill="#17282F"/>
    <path d="M534 225.7c0-.1 0-.2.2-.3l-.2.3ZM534.2 225.4ZM537.5 223v.1-.1Z" fill="#33535F"/>
    <path d="M537.5 222.3v1l-.1.3v.1l-.1.4v.3l-.1.2v.2l-.2.2c0 .2 0 .4-.2.6v.2a5.6 5.6 0 0 1-.5 1l-.1.1-2.2-1.2.2-.3a5.8 5.8 0 0 0 .8-3v-.4l-.1-.4v-.2a10.1 10.1 0 0 0-.3-1.1v-.2l-.1-.2-.1-.1v-.2l-.2-.2a3.5 3.5 0 0 0-.4-.6 5 5 0 0 0-1-1l-.6-.5 1.3-2.2.5.4.3.2a7.9 7.9 0 0 1 .6.5l.3.4h.1l.2.3a6.8 6.8 0 0 1 .5.6c0 .2.1.2.2.3v.1l.2.4.4.7a6.2 6.2 0 0 1 .3.8v.3l.1.2.2.7v1.3Z" fill="#33535F"/>
    <path d="M532.2 217.3ZM533.6 218.5ZM533.6 215.2l-.1-.1.1.1ZM534 215.5ZM534.6 220.3ZM535 222.1v.5-.5Z" fill="#999B9B"/>
    <path d="m533.2 214.9-1.3 2.2a6 6 0 0 0-2.8-.8v-2.5c1.5 0 2.8.4 4 1Z" fill="#17282F"/>
    <path d="M521.5 218v-.1.1ZM521.5 217.9ZM522.8 216.3ZM523.4 215.7ZM525.5 214.4ZM528.7 213.8ZM528.7 213.8v2.5h-.4a5.8 5.8 0 0 0-1 .2h-.2l-.3.1-.3.2a6.1 6.1 0 0 0-1.2.6l-.1.1-.1.1-.2.2c-.2 0-.2.2-.3.3l-.3.2a4 4 0 0 0-.5.6 5.4 5.4 0 0 0-.3.7l-.2.3v.2l-.1.2-.1.2a6.5 6.5 0 0 0-.2.6V222.2h-2.6a8.5 8.5 0 0 1 1.2-4.2v-.1a8.7 8.7 0 0 1 5.2-3.9l2-.2Z" fill="#FABB1E"/>
    <path d="M521.3 218.3a8.5 8.5 0 0 1 0 0Z" fill="#BEBFBD"/>
    <path d="m525.5 227.4-1.3 2.2a8.6 8.6 0 0 1-4-7h2.6a6 6 0 0 0 2.7 4.8Z" fill="#273E47"/>
    <path d="M536 227.2a8.6 8.6 0 0 1-11.4 2.6l1.2-2.2a6 6 0 0 0 8-1.6l2.1 1.2Z" fill="#E7E8E5"/>
    <path d="m525.8 222.4-1.1.9h1.2l-.1.1H524.4v-.1l1.3-1 .3-.6-.1-.3a.5.5 0 0 0-.4-.2c-.2 0-.3 0-.5.2l-.1.1h-.1v-.1l.1-.1c.2-.2.4-.2.6-.2.2 0 .4 0 .5.2l.2.4c0 .3-.2.5-.4.7ZM528 222c0-.3 0-.4-.2-.6l-.3-.2c-.2 0-.4.1-.5.3a1.6 1.6 0 0 0-.4 1l.1.6.4.2c.2 0 .3-.1.5-.3a1.6 1.6 0 0 0 .4-1Zm0-.7.1.7a1.8 1.8 0 0 1-.4 1c-.1.3-.4.4-.6.4a.6.6 0 0 1-.5-.2l-.2-.7a1.8 1.8 0 0 1 .4-1c.2-.3.4-.4.7-.4.2 0 .4 0 .5.2ZM530.4 222c0-.3 0-.4-.2-.6l-.3-.2c-.2 0-.4.1-.5.3a1.6 1.6 0 0 0-.4 1c0 .3 0 .5.2.6l.3.2c.2 0 .4-.1.5-.3a1.6 1.6 0 0 0 .4-1Zm0-.7.2.7a1.8 1.8 0 0 1-.4 1c-.2.3-.5.4-.7.4a.6.6 0 0 1-.5-.2l-.1-.7a1.8 1.8 0 0 1 .4-1c.1-.3.4-.4.6-.4.2 0 .4 0 .5.2ZM532 221.2l-.3 1.3 1.7-1.4h.1v.1l-1 1 .7 1.1v.1h-.1l-.8-1.2-.6.6-.1.6h-.1l.3-2.3h.1ZM485.4 74.8h1.7V74h-1.7v.7Zm3.5 0h1.8V74H489v.7Zm3.6 0h1.8V74h-1.8v.7Zm3.6 0h1.7V74H496v.7Zm3.5 0h1.8V74h-1.8v.7Zm3.6 0h1.8V74h-1.8v.7Zm3.5 0h1.8V74h-1.8v.7Zm3.6 0h1.8V74h-1.8v.7Zm3.6 0h1.7V74H514v.7Zm3.5 0h1.8V74h-1.8v.7Zm3.6 0h1.8V74H521v.7Zm3.5 0h1.8V74h-1.8v.7Zm3.6 0h1.8V74H528v.7Zm3 1.7h.7v-1.8h-.7v1.8Zm0 3.5h.7v-1.8h-.7V80Zm0 3.6h.7v-1.8h-.7v1.8Zm0 3.5h.7v-1.8h-.7v1.8Zm0 2.6h.7V89h-.7v.8Z" fill="#17282F"/>
    <path d="m530 89.3 1.4 2.3 1.4-2.3H530Z" fill="#17282F"/>
    <path d="M79.3 186H25l7-39.4h54.4l-7 39.4ZM51.8 142.5H32.6l-.7 4h20.3l-.4-4Z" fill="#FABB1E"/>
    <path d="M79.3 186H25l7-39.4h54.4l-7 39.4ZM52.2 146.6H32l.7-4.1h19.2l.4 4Z" fill="#D59814"/>
    <path d="M49.6 146H33.9l.4-2.3H50l-.4 2.4Z" fill="#fff"/>
    <path d="m76.5 142.6 2 39.4-50.6 2.4-2-39.3 50.6-2.5Z" fill="#E7E8E5"/>
    <path d="m38.5 179.6-.8-15.4L37 149l.8 15.3.7 15.4ZM39.7 179.6l-.7-15.4-.7-15.4.7 15.4.7 15.4ZM41 179.5l-.8-15.4-.7-15.4.8 15.4.7 15.4ZM42.3 179.4l-.8-15.3-.7-15.4.7 15.4.8 15.3ZM43.5 179.4l-.8-15.4-.7-15.4.8 15.4.7 15.4ZM44.8 179.3 44 164l-.7-15.3.8 15.3.7 15.4ZM46 179.2l-.8-15.3-.7-15.4.8 15.4.7 15.3ZM47.3 179.2l-.8-15.4-.7-15.4.8 15.4.7 15.4ZM48.5 179.1l-.8-15.3-.7-15.4.8 15.3.7 15.4ZM49.8 179l-.8-15.3-.7-15.4.8 15.4.7 15.4ZM51 179l-.8-15.4-.7-15.3.8 15.3.7 15.4ZM52.3 179l-.8-15.4-.7-15.4.8 15.4.7 15.3ZM53.5 178.9l-.7-15.4-.7-15.4.7 15.4.7 15.4ZM54.8 178.8l-.8-15.4-.7-15.3.8 15.3.7 15.4ZM56 178.8l-.7-15.4-.7-15.4.7 15.4.8 15.4Z" fill="#BEBFBD"/>
    <path d="M52 173.4v2.3l5.4-.3-.2-2.3-5.2.3ZM49 169.2v2.3l8.1-.4v-2.3l-8.1.4ZM45.6 165l.1 2.3 11.2-.5v-2.3l-11.3.5ZM44 160.7l.2 2.4 12.5-.6V160l-12.7.6ZM41.4 156.5l.1 2.4 15-.8-.1-2.3-15 .7ZM38.8 152.3l.2 2.4 17.3-.9-.1-2.3-17.4.8Z" fill="#FABB1E"/>
    <path d="m37.6 178.8 5-.3 5-.3 9.9-.5-.2.2-.3-7.5-.4-7.5-.3-7.5-.3-7.5.5 7.5.4 7.5.4 7.5.3 7.4v.2h-.1l-10 .4-5 .2-5 .2ZM58.5 173l.1 2.4h-.2l-.1-2.3h.2ZM58.3 168.7l.1 2.4h-.2l-.1-2.4h.2ZM58 164.4l.2 2.3H58l-.1-2.3h.2ZM57.9 160v2.4h-.1l-.1-2.3h.2ZM57.7 155.7v2.4h-.1l-.1-2.3h.2ZM57.5 151.4v2.3h-.1l-.2-2.3h.3Z" fill="#BEBFBD"/>
    <path d="M52.7 175.4a28.3 28.3 0 0 0-1.1-6.7 29 29 0 0 0-2.6-6.3c-1.1-2-2.5-3.8-4.1-5.4l-.3-.3-.3-.3-.7-.6-1.3-1-3-1.8a20.4 20.4 0 0 1 10 9.2 27.8 27.8 0 0 1 3.4 13.2Z" fill="#17282F"/>
    <path d="M41 152.3v.3l-1.5.5.6 1.5-.3.1-.8-1.8 2-.6Z" fill="#17282F"/>
    <path d="m65.4 179-1.6-32.1h1.3l1.6 32h-1.3ZM68.6 178.8l-.8-18 1.3-.1.8 18-1.3.1ZM33 173.5l-1-18 1.4-.1.9 18-1.3.1Z" fill="#D4D6D3"/>
    <path d="M79.4 186H25l-10.5-36.2h54.4L79.4 186ZM32.6 146H13.4l1 3.8h20.4l-2.2-3.7Z" fill="#FABB1E"/>
    <path d="m404.8 193.3 8.7-8-31-34.4-8.8 8 31 34.4Z" fill="#BEBFBD"/>
    <path d="m429 224.7 13.3-11.9-32.2-35.7-13.2 12 32.1 35.6Z" fill="#17282F"/>
    <path d="M389.6 125.7v.7l-.4 1.5-.1.4a44.7 44.7 0 0 1-7 15.4l-.2.4a46.1 46.1 0 0 1-40.3 19.2h-.4a46.2 46.2 0 0 1-25.6-10l-.4-.3c-3-2.6-5.8-5.5-8.2-8.9l-.3-.4a46.3 46.3 0 0 1-7.4-17.6l-.1-.5c-1-5.6-1-11.3.1-17l.2-.6v-.5a45.6 45.6 0 0 1 22.8-30.2 45.7 45.7 0 0 1 60.3 14.6 45.8 45.8 0 0 1 6.7 15.7v.3c1.3 5.8 1.4 11.8.3 17.8Z" fill="#D4D6D3"/>
    <path d="M389.6 125.7v.7l-.4 1.5-.1.4a44.7 44.7 0 0 1-7 15.4l-.2.4a46.1 46.1 0 0 1-40.3 19.2h-.4a46.2 46.2 0 0 1-25.6-10l-.4-.3c-3-2.6-5.8-5.5-8.2-8.9l-.3-.4a46.3 46.3 0 0 1-7.4-17.6l-.1-.5c-1-5.6-1-11.3.1-17l.2-.6v-.5a45.6 45.6 0 0 1 22.8-30.2 45.7 45.7 0 0 1 60.3 14.6 45.8 45.8 0 0 1 6.7 15.7v.3c1.3 5.8 1.4 11.8.3 17.8Z" fill="#17282F"/>
    <path d="M389.6 125.7v.7l-.4 1.5-.1.4a44.7 44.7 0 0 1-7 15.4l-.2.4a46.1 46.1 0 0 1-40.3 19.2h-.4a46.2 46.2 0 0 1-25.6-10l-.4-.3c-3-2.6-5.8-5.5-8.2-8.9l-.3-.4a46.3 46.3 0 0 1-7.4-17.6l-.1-.5c-1-5.6-1-11.3.1-17l.2-.6v-.5a45.6 45.6 0 0 1 22.8-30.2h44.3a45.3 45.3 0 0 1 22.7 30.3v.3c1.3 5.8 1.4 11.8.3 17.8Z" fill="#fff"/>
    <path d="M378.2 86.4h-67.6a46.7 46.7 0 0 1 11.7-9.1h44.3c4.4 2.3 8.3 5.4 11.6 9Z" fill="#FABB1E"/>
    <path d="M315.7 144.1v9.2c-.2 0-.3-.2-.5-.3V125.6l.1-8.5.1-9.1.2 9v27.1ZM341.6 145v18.3h-.4V117.1l.2-9.1.1 9V136.2l.1 1.6v7.4ZM367.6 144v13.2l-.4.2v-40.3l.2-9.2v15.7l.1.4V144.1Z" fill="#E7E8E5"/>
    <path d="M389.4 107.9h-74l-16 .1.2-.5 77 .1h12.7v.3ZM389.6 125.7v.3h-90.3l-.1-.4h77.5l13 .1ZM382.1 143.8l-.2.3H307l-.3-.4H382ZM356.6 161.8l-1.4.4h-21.5l-1.6-.4h24.5Z" fill="#E7E8E5"/>
    <path d="m389.2 127.9-.1.4-19.2-2h-1l-1.4-.2h-.1l-.2.1-1.2.5-.5.2-.4.1-13 5-.9.4-7.3 2.8-.4.2-.5.1-1.4.6h-.4l-1.5-.3-.4-.1-.5-.1-2.7-.5-.8-.2-17.4-3.5-.4-.1-.5-.1-1.4-.3h-1.8l-.5.1h-.4l-12 1-.4-.8 12.3-1h1l1.5-.2H315.6l1.5.4h.5l.5.2 17.8 3.7.8.1 2.3.5.5.1.5.1 1.2.3h.4l1-.5.6-.2.4-.1 6.7-2.6 1-.3 13.5-5.2.5-.2.4-.2.4-.1.9-.3.2-.1h1.3l.5.1h.5l.5.1 1.7.2 17.5 1.9Z" fill="#FABB1E"/>
    <path d="M343.6 136a2.2 2.2 0 1 1-4.4 0 2.2 2.2 0 0 1 4.4 0Z" fill="#fff"/>
    <path d="M341.6 137.7h-.4c-.8-.1-1.5-.9-1.5-1.7v-.2c0-.3.1-.5.3-.7.2-.4.7-.7 1.2-.8h.4a1.7 1.7 0 0 1 1.5 1.7c0 .8-.7 1.6-1.5 1.7Zm2.3-2.5-.3-.6a2.6 2.6 0 0 0-2-1.2h-.4a2.6 2.6 0 0 0-2.4 2.2v.4c0 1.4 1 2.5 2.4 2.6h.4a2.6 2.6 0 0 0 2.3-3.4Z" fill="#FABB1E"/>
    <path d="M317.6 130.5a2.2 2.2 0 1 1-4.3 0 2.2 2.2 0 0 1 4.3 0Z" fill="#fff"/>
    <path d="m317.1 130.5-.1.7c-.3.5-.8.9-1.4 1H315.3a1.7 1.7 0 0 1-1.5-2c.1-.8.7-1.3 1.5-1.4H315.6c.8.1 1.5.8 1.5 1.6Zm-1.5-2.6H315.3a2.6 2.6 0 0 0-2.5 2.3V131.1c.3 1 1.3 2 2.4 2h.4a2.6 2.6 0 0 0 2.5-2.5v-.1c0-1.4-1.1-2.6-2.5-2.6Z" fill="#FABB1E"/>
    <path d="M369.5 125.7a2.2 2.2 0 1 1-4.3 0 2.2 2.2 0 0 1 4.3 0Z" fill="#fff"/>
    <path d="M369 125.7a1.6 1.6 0 0 1 0 .6c-.3.6-.8 1-1.5 1H367.2a1.7 1.7 0 0 1-1.5-1.2v-.4c0-.9.7-1.6 1.5-1.7H367.5c.8.1 1.5.8 1.5 1.7Zm-1.5-2.6H367.2a2.6 2.6 0 0 0-2.5 2.6 3 3 0 0 0 .1.8c0 .2.2.4.3.5.4.8 1.2 1.3 2 1.3h.4a2.6 2.6 0 0 0 2.5-2.3V125.7c0-1.4-1.1-2.6-2.5-2.6Z" fill="#FABB1E"/>
    <path d="m386.8 135.4-.3.5L370 138h-.5l-.5.1-1.4.2h-.4l-1.5-.6-.4-.1-.5-.2-13.6-5-.9-.4-6.6-2.4-.4-.2-.5-.2-1.2-.4h-.1l-.3.3-.6.7-.3.4-.3.3-3.3 4-.6.6-7.3 8.6-.3.4-9.8 11.5-.6-.5 9.4-11 .3-.4 7.5-8.8.6-.6 3.5-4.2.3-.4.4-.4 1-1.2.1-.1h.3l1.6.6.4.2.5.1 7.2 2.8 1 .3 12.8 4.9.5.1.5.2 1.1.4.3.1h.2l1.3-.1.5-.1h.5l16.9-2.1Z" fill="#273E47"/>
    <path d="M343.6 128.3a2.2 2.2 0 1 1-4.4 0 2.2 2.2 0 0 1 4.4 0Z" fill="#fff"/>
    <path d="M343 128.6c0 .2 0 .4-.2.6-.2.4-.7.7-1.2.8h-.4c-.2 0-.4 0-.6-.2l-.5-.5c-.3-.2-.4-.6-.4-1 0-.8.7-1.6 1.5-1.6h.4c.8 0 1.5.8 1.5 1.6v.3Zm-.3-2.6c-.3-.2-.7-.3-1.1-.3h-.4c-.4 0-.8.1-1.1.3a2.6 2.6 0 0 0-.1 4.5c.3.3.8.4 1.2.5h.4a2.6 2.6 0 0 0 2.4-2.7c0-1-.5-1.8-1.3-2.3Z" fill="#273E47"/>
    <path d="M369.5 138.1a2.2 2.2 0 1 1-4.3 0 2.2 2.2 0 0 1 4.3 0Z" fill="#fff"/>
    <path d="M369 138.1c0 1-.6 1.6-1.4 1.7h-.5a1.7 1.7 0 0 1 0-3.3h.5c.6 0 1.1.5 1.3 1l.1.6Zm1-.1-.1-.6c-.3-1-1.2-1.8-2.4-1.9h-.4a2.6 2.6 0 0 0-2.4 2.6c0 1.4 1 2.6 2.4 2.7h.5a2.6 2.6 0 0 0 2.4-2.7v-.1Z" fill="#273E47"/>
    <path d="M335.2 164.1a47.6 47.6 0 1 0 18.4-93.4 47.6 47.6 0 0 0-18.4 93.4Zm-1.2 6a53.8 53.8 0 1 1 21-105.4 53.8 53.8 0 0 1-21 105.5Z" fill="#273E47"/>
    <path d="M389.5 126.4a46 46 0 1 1-90.2-18 46 46 0 0 1 90.2 18ZM385.2 90a48.9 48.9 0 0 0-68.1-13.4 48.8 48.8 0 0 0-13.5 68.1 49.3 49.3 0 0 0 88.6-39 49.4 49.4 0 0 0-7-15.7Zm10.4 37.5a51.8 51.8 0 0 1-61.3 41 51.7 51.7 0 0 1-40.5-38.7 52.2 52.2 0 1 1 101.8-2.3Zm2.6-23.3a55.2 55.2 0 0 0-43-41 55.4 55.4 0 1 0 43 41Zm-8.7 22a46 46 0 1 1-90.2-17.9 46 46 0 0 1 90.2 18Zm2.7-20.5A49.4 49.4 0 0 0 317 76.7a48.8 48.8 0 0 0-13.5 68.1 49.3 49.3 0 0 0 88.6-39Zm-2.7 20.6a46 46 0 1 1-90.2-18 46 46 0 0 1 90.2 18Zm2.7-20.6A49.4 49.4 0 0 0 317 76.7a48.8 48.8 0 0 0-13.5 68.1 49.3 49.3 0 0 0 88.6-39Z" fill="#273E47"/>
    <path d="M354 162.4a50 50 0 0 0 4-1 46 46 0 0 1-4 1Zm4.3-1.1Z" fill="#fff"/>
    <path d="m358 161.4.3-.1h-.3Z" fill="#EEEEEC"/>
    <path d="m367.3 157.3.2-.1a46.5 46.5 0 0 0-.3.1Zm-46.7-.5Zm-2.3-1.5-1.7-1.2 1.5 1 .2.2Zm-2.2-1.7Z" fill="#fff"/>
    <path d="M316.6 154Z" fill="#60777C"/>
    <path d="M315.3 153ZM376 151Zm4.3-4.7Zm0 0 1.6-2.1.2-.3-1.7 2.3Zm2.2-3Z" fill="#fff"/>
    <path d="m382.1 143.8.4-.6c0 .2-.2.4-.4.6Z" fill="#EEEEEC"/>
    <path d="M302 135.3Z" fill="#fff"/>
    <path d="m302.4 136-.3-.7c0 .3.2.5.3.8Z" fill="#FCCE4E"/>
    <path d="m300.6 131.3-.1-.3v.2Zm-.2-.7-.2-.6.2.6Z" fill="#fff"/>
    <path d="m300.5 131-.1-.4v.4Z" fill="#EEEEEC"/>
    <path d="M389 106.5Zm-3.4-9.4Zm-1.1-2.1Z" fill="#fff"/>
    <path d="M377.4 85.5Z" fill="#57666B"/>
    <path d="M384 94a47.4 47.4 0 0 0-6.6-8.5A46.6 46.6 0 0 1 384 94Z" fill="#FCCE4E"/>
    <path d="M321.4 77.8ZM322.3 77.3a45.6 45.6 0 0 1 44.3 0h-44.3Z" fill="#57666B"/>
    <path d="M344.5 163.4h-3v-1.2h13.7a50 50 0 0 1-10.7 1.2Zm-3.3 0a46.8 46.8 0 0 1-7.4-1.2h7.4v1.1Zm15.4-1.6h-15V144h25.5v13.3a47 47 0 0 1-8.8 3.9h-.3l-1.4.5Zm-15.4 0h-9a46 46 0 0 1-13.5-6.2l9.8-11.5h12.7v17.7Zm26.3-4.6V144H382l-1.5 2a46.2 46.2 0 0 1-4.4 4.8 46.4 46.4 0 0 1-8.5 6.3Zm-49.4-2a42.9 42.9 0 0 1-2.5-1.9v-9.2h11.9l-9.4 11Zm-2.9-2.2-.5-.5a46.3 46.3 0 0 1-7.7-8.4h8.2v8.9Zm67-9.2h-14.6v-3a2.6 2.6 0 0 0 2.4-2.7v-.1l16.5-2.1a46 46 0 0 1-4 7.3c0 .2-.2.4-.4.6Zm-15 0h-25.6v-5.2a2.6 2.6 0 0 0 2.3-3.4l7.3-2.8 13.6 5-.1.7c0 1.4 1 2.6 2.4 2.7v3Zm-26 0-12.4-.1 7.3-8.6 2.7.5v.4c0 1.4 1 2.5 2.4 2.6v5.1Zm-13.4-.1h-12.1V133c1 0 1.9-.8 2.2-1.7l17.4 3.5-7.5 8.8Zm-12.6 0h-8.5a78.8 78.8 0 0 1-4-6.9 39.3 39.3 0 0 1-1.9-4.8l12-1c.3 1.2 1.3 2 2.4 2.1v10.6Zm54.7-6.3c-.3-1-1.2-1.8-2.4-1.9v-7.2c1.2 0 2.1-.8 2.4-2l19.2 2a46 46 0 0 1-2.3 7l-17 2.1Zm-4.9-.5-12.8-4.9 12.9-5c.4.8 1.2 1.3 2 1.3v7.2c-.9 0-1.6.6-2 1.4Zm-26-2-2.3-.5 3.3-3.9c.3.3.8.4 1.2.5v2.4c-1 0-1.8.7-2.2 1.5Zm4.6-.3a2.6 2.6 0 0 0-2-1.2V131c1-.1 1.7-.6 2.1-1.4l6.6 2.4-6.7 2.6Zm-7.7-.3-17.8-3.7v-.1c0-1.4-1.1-2.6-2.5-2.6V126h24.5a2.6 2.6 0 0 0-.7 4l-3.5 4.2Zm15.3-2.6-7.2-2.8v-.6c0-1-.5-1.8-1.3-2.3h22l.1.5-13.6 5.2Zm-50.7-.5v-.2l-.1-.4-.2-.6a44.1 44.1 0 0 1-1-4h16v1.9a2.6 2.6 0 0 0-2.4 2.3l-12.3 1Zm88.7-3.3-17.5-1.9h17.9l-.4 1.9Zm.4-2.2H370c0-1.4-1.1-2.6-2.5-2.6v-6l-.1-9.2h22a46 46 0 0 1 .2 17.8Zm-24.9 0h-23.1V117l-.2-9.1h26l-.2 9v6a2.6 2.6 0 0 0-2.5 2.7Zm-23.5 0h-25.6V117l-.2-9.1h26l-.1 9v8.6Zm-26 0-16-.1a46 46 0 0 1 .2-17v-.6h16v9l-.1 8.6Zm74.1-18-12.6-.1h-77.1a45.9 45.9 0 0 1 11-21.2h67.6a46.3 46.3 0 0 1 6.2 8.5l1.2 2.2a45.4 45.4 0 0 1 3.7 10.5Z" fill="#fff"/>
    <path d="M378.2 86.4h-67.6a46.5 46.5 0 0 1 11.7-9.1h44.3a43.6 43.6 0 0 1 11.6 9Z" fill="#E0E0E0"/>
    <path d="m315.6 153.3-.1-.1-.2-.2-.1-8v-.9h.5v9.2Zm0-9.6h-.4V133h.4v10.6Zm0-15.8H315.3V126h.3v1.8Zm0-2.3h-.3v-8.5l.1-9.1.2 9v8.6ZM341.6 163.3h-.4v-1.1h.4v1.1Zm0-1.5h-.4V144h.4v17.7Zm0-18h-.4v-5.2h.4v5.1Zm0-10.4h-.4V131h.4v2.4Zm0-7.8h-.4v-8.5l.2-9.1.1 9v8.6ZM367.2 157.4v-13.3h.4v13l-.4.2v.1Zm.4-13.7h-.5v-3h.5v3Zm0-8.2h-.5v-7.2h.4v7.2Zm-.1-12.4H367.2v-6l.2-9.2v15.2Z" fill="#EEEEEC"/>
    <path d="M299.5 108v-.5l77.2.1h12.6v.3h-73.9l-16 .1ZM299.3 126l-.1-.4h65.5v.4h-22c-.3-.2-.7-.3-1.1-.3h-.4c-.4 0-.8.1-1.1.3h-40.8Zm72.4 0-1.7-.2v-.1h19.7l-.1.3h-18ZM307 144.1a79 79 0 0 1-.3-.4h21.1l-.3.4H307Zm21.5 0 .3-.4h53.3l-.2.4H328.5ZM333.8 162.2l-1.6-.4h24.4l-1.4.4h-21.4Z" fill="#EEEEEC"/>
    <path d="m338.8 135.6-2.7-.5.6-.7 2.3.5-.2.7Zm5.1-.4-.3-.6 6.7-2.6 1 .4-7.4 2.8Zm-8.6-.3-17.4-3.5.2-.8 17.8 3.7-.6.6Zm-34.5-2.9v-.2l-.2-.5v-.1l12.2-1V131.1l-12 1Zm51.4 0-1-.3 13.6-5.2c0 .2.2.4.3.5l-13 5Zm36.9-3.7-19.2-2v-.5l1.8.2 17.5 1.9-.1.4Z" fill="#24CCA7"/>
    <path d="M341.4 137.7h-.2c-.8-.1-1.5-.9-1.5-1.7v-.2c0-.3.1-.5.3-.7.2-.4.7-.7 1.2-.8h.4c.4 0 .8.3 1 .6l.4.6v.5c0 .8-.6 1.6-1.4 1.7h-.2Z" fill="#fff"/>
    <path d="M341.4 138.6h-.2a2.6 2.6 0 0 1 0-5.2h.4a2.6 2.6 0 0 1 2.3 1.8l.1.8c0 1.4-1 2.5-2.4 2.6h-.2Zm0-4.3h-.2c-.5 0-1 .4-1.2.8-.2.2-.2.4-.3.7v.2c0 .8.7 1.6 1.5 1.7h.4a1.7 1.7 0 0 0 1-2.8c-.2-.3-.6-.5-1-.6h-.2Z" fill="#24CCA7"/>
    <path d="M315.4 132.2h-.1a1.7 1.7 0 0 1-1.5-2c.1-.8.7-1.3 1.5-1.4H315.6c.8.1 1.5.8 1.5 1.6l-.1.8c-.3.5-.8.9-1.4 1h-.2Z" fill="#fff"/>
    <path d="M315.4 133.1h-.1a2.7 2.7 0 0 1-2.5-2.6v-.3a2.6 2.6 0 0 1 2.5-2.3H315.6c1.4 0 2.5 1.2 2.5 2.6 0 .3 0 .6-.2.9-.3 1-1.2 1.7-2.3 1.7h-.2Zm0-4.3h-.1a1.7 1.7 0 0 0 0 3.4H315.6a1.7 1.7 0 0 0 1.5-1.7v-.1c0-.8-.7-1.5-1.5-1.6h-.2Z" fill="#24CCA7"/>
    <path d="M367.4 127.4h-.2a1.7 1.7 0 0 1-1.5-1.3v-.4c0-.9.7-1.6 1.5-1.7H367.5c.8.1 1.5.8 1.5 1.7a1.6 1.6 0 0 1 0 .6c-.3.6-.8 1-1.5 1h-.1Z" fill="#fff"/>
    <path d="M367.4 128.4h-.2a2.6 2.6 0 0 1-2.5-2.7c0-1.4 1.1-2.6 2.5-2.6h.2c1.5 0 2.6 1.2 2.6 2.6V126l-.1.4c-.3 1-1.2 1.9-2.4 2h-.1Zm0-4.4h-.2c-.8.1-1.5.8-1.5 1.7v.4l.3.6c.2.4.7.6 1.2.7H367.5a1.7 1.7 0 0 0 1.5-1.7c0-.9-.7-1.6-1.5-1.7h-.1Z" fill="#24CCA7"/>
    <path d="m318.7 155.6-.3-.3h-.1l-.2-.2 9.4-11 .3-.4 7.5-8.8.6-.6 3.5-4.2.6.4-3.3 4-.6.6-7.3 8.6-.3.4-9.8 11.5ZM370 138l-.1-.6 16.9-2-.3.5L370 138Zm-5.2-.6-13.6-5-.9-.4-6.6-2.4.3-.7 7.2 2.8 1 .3 12.8 4.9-.2.5Z" fill="#60777C"/>
    <path d="M341.4 130h-.2c-.2 0-.4 0-.6-.2l-.5-.5c-.3-.2-.4-.6-.4-1 0-.8.7-1.6 1.5-1.6h.4c.8 0 1.5.8 1.5 1.6v.3l-.3.6c-.2.4-.7.7-1.2.8h-.2Z" fill="#fff"/>
    <path d="M341.4 131h-.2c-.4 0-.9-.2-1.2-.5-.2 0-.4-.2-.6-.4a2.6 2.6 0 0 1 1.8-4.4h.4c.4 0 .8.1 1 .3a2.6 2.6 0 0 1 1.1 3.6c-.4.8-1.2 1.3-2.1 1.4h-.2Zm0-4.4h-.2c-.8.1-1.5.9-1.5 1.7 0 .4.1.8.4 1l.5.5.6.2h.4c.5 0 1-.4 1.2-.8l.3-.6v-.3c0-.8-.7-1.6-1.5-1.6h-.2Z" fill="#60777C"/>
    <path d="M367.4 139.8h-.3a1.7 1.7 0 0 1 0-3.3h.5c.6 0 1.1.5 1.3 1l.1.6c0 1-.6 1.6-1.4 1.7h-.2Z" fill="#fff"/>
    <path d="M367.4 140.8h-.3a2.6 2.6 0 0 1 0-5.3h.4a2.7 2.7 0 0 1 2.5 2.5v.1c0 1.4-1 2.6-2.4 2.7h-.2Zm0-4.3h-.3c-.4 0-.9.3-1.1.7a1.6 1.6 0 0 0-.3 1c0 .8.6 1.5 1.4 1.6h.5c.8 0 1.4-.8 1.4-1.7v-.5c-.3-.6-.8-1-1.4-1.1h-.2ZM349.3 163.2a45.3 45.3 0 0 0 8.7-1.8l.3-.1a46.3 46.3 0 0 0 8.9-3.9 46.2 46.2 0 0 0 13-11.2h.1a44.9 44.9 0 0 0-10.3 9.4 45.7 45.7 0 0 1-20.7 7.6Zm-30-7.3a45.7 45.7 0 0 1-19.1-26l.2.7v.4l.2.3A51.5 51.5 0 0 0 307 144a46.3 46.3 0 0 0 11.3 11.2l1 .6Zm69-52a48 48 0 0 0-3.9-9 49 49 0 0 0 4 9Zm-82.1-12Z" fill="#60777C"/>
    <path d="M326.2 85.2a35.3 35.3 0 0 1 21.2-5.4 36.8 36.8 0 0 1 21 8c4 3 7.4 7 9.8 11.2a72.7 72.7 0 0 0-11.1-9.3 44.5 44.5 0 0 0-26.8-7c-4.8.2-9.5 1-14 2.5Z" fill="#fff"/>
  </g>
  <defs>
    <clipPath id="a">
      <path fill="#fff" d="M0 0h579v344H0z"/>
    </clipPath>
  </defs>
</svg>
